<?xml version="1.0" encoding="UTF-8"?>
<svg viewBox="0 0 471.75 525.05884" xmlns="http://www.w3.org/2000/svg" xmlns:xlink="http://www.w3.org/1999/xlink">
 <defs>
  <filter id="as">
   <feGaussianBlur stdDeviation=".65451"/>
  </filter>
  <filter id="ar">
   <feGaussianBlur stdDeviation="1.15856"/>
  </filter>
  <filter id="aq">
   <feGaussianBlur stdDeviation=".59324"/>
  </filter>
  <filter id="ap">
   <feGaussianBlur stdDeviation="1.30032"/>
  </filter>
  <filter id="an">
   <feGaussianBlur stdDeviation=".71932"/>
  </filter>
  <filter id="am">
   <feGaussianBlur stdDeviation=".31039"/>
  </filter>
  <filter id="al">
   <feGaussianBlur stdDeviation=".33767"/>
  </filter>
  <filter id="ak">
   <feGaussianBlur stdDeviation="1.2578"/>
  </filter>
  <filter id="aj">
   <feGaussianBlur stdDeviation=".2023"/>
  </filter>
  <filter id="e">
   <feGaussianBlur stdDeviation=".256"/>
  </filter>
  <filter id="c"/>
  <filter id="ai" x="-.11745" y="-.03506" width="1.2349" height="1.0701">
   <feGaussianBlur stdDeviation="2.06736"/>
  </filter>
  <filter id="ao" x="-.16802" y="-.25489" width="1.336" height="1.5098">
   <feGaussianBlur stdDeviation="27.3227"/>
  </filter>
  <filter id="ah" x="-.15464" y="-.29341" width="1.3093" height="1.5868">
   <feGaussianBlur stdDeviation="23.15124"/>
  </filter>
  <filter id="ag" x="-.23912" y="-.19147" width="1.4782" height="1.3829">
   <feGaussianBlur stdDeviation="15.87129"/>
  </filter>
  <filter id="af" x="-.09874" y="-.25125" width="1.1975" height="1.5025">
   <feGaussianBlur stdDeviation="8.17671"/>
  </filter>
  <linearGradient id="d">
   <stop stop-color="#444" offset="0"/>
   <stop stop-color="#444" stop-opacity="0" offset="1"/>
  </linearGradient>
  <linearGradient id="a">
   <stop stop-color="#8095a5" offset="0"/>
   <stop stop-color="#8095a5" stop-opacity="0" offset="1"/>
  </linearGradient>
  <linearGradient id="b">
   <stop stop-color="#7989a1" offset="0"/>
   <stop stop-color="#7989a1" stop-opacity="0" offset="1"/>
  </linearGradient>
  <linearGradient id="ad" x1="360.29" x2="601.11" gradientUnits="userSpaceOnUse">
   <stop stop-color="#fff" offset="0"/>
   <stop stop-color="#949494" offset=".27664"/>
   <stop stop-color="#838383" offset=".55328"/>
   <stop stop-color="#ada5a5" stop-opacity=".99608" offset=".77664"/>
   <stop stop-color="#fff" stop-opacity=".99444" offset="1"/>
  </linearGradient>
  <linearGradient id="ae" x1="405.71" x2="579.08" gradientUnits="userSpaceOnUse">
   <stop stop-color="#10050f" offset="0"/>
   <stop stop-color="#0b0c24" offset=".38191"/>
   <stop stop-color="#434b59" offset=".69096"/>
   <stop stop-color="#95a0b1" offset="1"/>
  </linearGradient>
  <linearGradient id="o" x1="393.15" x2="610.29" gradientUnits="userSpaceOnUse">
   <stop stop-color="#364965" offset="0"/>
   <stop stop-color="#0d0819" offset=".18063"/>
   <stop stop-color="#0b0c24" offset=".41365"/>
   <stop stop-color="#434b59" offset=".69096"/>
   <stop stop-color="#95a0b1" offset="1"/>
  </linearGradient>
  <linearGradient id="y" x1="541.36" x2="563.21" y1="254.85" y2="268" gradientUnits="userSpaceOnUse">
   <stop stop-color="#070707" offset="0"/>
   <stop stop-color="#0c1a21" offset=".60593"/>
   <stop stop-color="#0e242e" offset=".75"/>
   <stop stop-color="#0f2934" offset=".875"/>
   <stop stop-color="#112e3b" offset="1"/>
  </linearGradient>
  <linearGradient id="x" x1="523.09" x2="476.45" y1="195.21" y2="255.18" gradientUnits="userSpaceOnUse">
   <stop stop-color="#0b1520" offset="0"/>
   <stop stop-color="#070f15" offset=".94403"/>
   <stop stop-color="#040709" offset="1"/>
  </linearGradient>
  <linearGradient id="h" x1="355.83" x2="391.87" y1="285.73" y2="330.93" gradientUnits="userSpaceOnUse">
   <stop stop-color="#252f40" offset="0"/>
   <stop stop-color="#252f40" stop-opacity="0" offset="1"/>
  </linearGradient>
  <linearGradient id="t" x1="353.73" x2="672.65" y1="184.26" y2="256.08" gradientUnits="userSpaceOnUse">
   <stop stop-color="#865f65" offset="0"/>
   <stop stop-color="#7e5c52" offset=".07705"/>
   <stop stop-color="#735547" offset=".14221"/>
   <stop stop-color="#392615" offset=".38715"/>
   <stop stop-color="#3a1b17" offset=".58832"/>
   <stop stop-color="#412318" offset=".71412"/>
   <stop stop-color="#40271d" offset=".79393"/>
   <stop stop-color="#4e3b34" offset=".90065"/>
   <stop stop-color="#52444b" offset=".97033"/>
   <stop stop-color="#574950" offset="1"/>
  </linearGradient>
  <linearGradient id="s" x1="288.72" x2="537.58" y1="309.31" y2="120.67" gradientUnits="userSpaceOnUse">
   <stop stop-color="#f7f7ff" offset="0"/>
   <stop stop-color="#06060c" stop-opacity="0" offset="1"/>
  </linearGradient>
  <linearGradient id="n" x1="681.85" x2="577.53" y1="224.96" y2="187.96" gradientUnits="userSpaceOnUse">
   <stop stop-color="#392415" offset="0"/>
   <stop stop-color="#484848" stop-opacity="0" offset="1"/>
  </linearGradient>
  <linearGradient id="m" x1="372.4" x2="443.57" y1="476.57" y2="436.93" gradientUnits="userSpaceOnUse">
   <stop stop-color="#1c1c1c" offset="0"/>
   <stop stop-color="#2c190b" stop-opacity="0" offset="1"/>
  </linearGradient>
  <linearGradient id="i" x1="435.11" x2="356.98" y1="481.89" y2="605.97" gradientUnits="userSpaceOnUse">
   <stop stop-color="#1f1f1f" offset="0"/>
   <stop stop-color="#444" stop-opacity="0" offset="1"/>
  </linearGradient>
  <linearGradient id="g" x1="465.79" x2="509.09" y1="520.83" y2="583.78" gradientUnits="userSpaceOnUse">
   <stop stop-color="#292929" offset="0"/>
   <stop stop-color="#292929" stop-opacity="0" offset="1"/>
  </linearGradient>
  <linearGradient id="ac" x1="585.48" x2="612.35" y1="283.62" y2="302.46" gradientUnits="userSpaceOnUse" xlink:href="#b"/>
  <linearGradient id="ab" x1="554.21" x2="578" y1="285.78" y2="291.17" gradientTransform="matrix(-.99551 .094657 -.094657 -.99551 994.46 469.43)" gradientUnits="userSpaceOnUse" xlink:href="#b"/>
  <linearGradient id="aa" x1="558.36" x2="585.24" y1="278.56" y2="297.4" gradientTransform="matrix(-.99099 .13391 -.13391 -.99099 1004.8 456)" gradientUnits="userSpaceOnUse" xlink:href="#b"/>
  <linearGradient id="z" x1="558.36" x2="571.01" y1="278.56" y2="294.02" gradientTransform="matrix(.72444 -.68933 .68933 .72444 -13.367 447.72)" gradientUnits="userSpaceOnUse" xlink:href="#b"/>
  <linearGradient id="w" x1="566.18" x2="527.4" y1="239.84" y2="225.6" gradientUnits="userSpaceOnUse" xlink:href="#a"/>
  <linearGradient id="v" x1="442.83" x2="467.51" y1="211.12" y2="223.3" gradientUnits="userSpaceOnUse" xlink:href="#a"/>
  <linearGradient id="u" x1="436.19" x2="460.86" y1="210.2" y2="222.38" gradientUnits="userSpaceOnUse" xlink:href="#a"/>
  <linearGradient id="r" x1="545.96" x2="538.6" y1="279.71" y2="272.13" gradientUnits="userSpaceOnUse" xlink:href="#a"/>
  <linearGradient id="q" x1="547.56" x2="538.88" y1="293.96" y2="285.68" gradientUnits="userSpaceOnUse" xlink:href="#a"/>
  <linearGradient id="p" x1="545.26" x2="448.29" y1="291.92" y2="261.59" gradientUnits="userSpaceOnUse" xlink:href="#a"/>
  <linearGradient id="j" x1="522.29" x2="549.4" y1="275.4" y2="314.35" gradientUnits="userSpaceOnUse" xlink:href="#a"/>
  <linearGradient id="l" x1="480.13" x2="256.43" y1="453.06" y2="681.92" gradientUnits="userSpaceOnUse" xlink:href="#d"/>
  <linearGradient id="k" x1="534.02" x2="216.71" y1="471.98" y2="551.94" gradientUnits="userSpaceOnUse" xlink:href="#d"/>
  <radialGradient id="f" cx="523.26" cy="193.93" r="23.788" gradientTransform="matrix(1.0146 -1.7433 1.0858 .63193 -283.87 1042.5)" gradientUnits="userSpaceOnUse">
   <stop stop-color="#050707" offset="0"/>
   <stop stop-color="#8c9b95" offset=".34545"/>
   <stop stop-color="#6b7a94" offset=".53734"/>
   <stop stop-color="#27212d" offset=".69843"/>
   <stop stop-color="#1f1a24" offset=".86143"/>
   <stop stop-color="#1b1720" offset=".93071"/>
   <stop stop-color="#17141c" offset="1"/>
  </radialGradient>
 </defs>
 <g transform="translate(-207.49 -147.29)">
  <path d="m556.99 532.01c-44.118 49.632-209.66 171.19-238.05 168.2-34.926-3.6765-161.76-63.419-151.65-92.831 10.773-31.339 250-181.99 288.6-162.68s79.963 61.581 101.1 87.316z" fill="url(#l)" fill-rule="evenodd" filter="url(#ao)"/>
  <path d="m541.36 540.28c-37.224 27.574-326.78 86.489-340.07 63.419-11.474-19.908 13.992-100.61 25.735-118.57 21.788-33.32 251.84-94.669 284.93-49.632s66.636 77.206 29.412 104.78z" fill="url(#k)" fill-rule="evenodd" filter="url(#ah)"/>
  <path d="m571.69 516.38c-28.493 49.632-113.2 71.507-193.93-15.625-11.67-12.595-4.5956-22.978 49.632-17.463 78.686 8.002 126.84-6.4338 144.3 33.088z" fill="url(#g)" fill-rule="evenodd" filter="url(#af)"/>
  <path d="m401.65 466.75c61.647-5.3563 46.78 23.434 56.985 42.279 25.16 46.461-163.6 197.61-191.18 175.55s67.072-212 134.19-217.83z" fill="url(#i)" fill-rule="evenodd" filter="url(#ag)"/>
  <path d="m579.07 471.62c0.81239 106.75-139.73 103.01-173.04 32.496 104.8 47.769 135.99 25.834 173.04-32.496z" fill="url(#ae)" fill-rule="evenodd" filter="url(#c)"/>
  <path d="m578.34 465.77c3.0871 99.274-134.86 101.87-177.91 24.859 104.8 47.769 140.87 33.471 177.91-24.859z" fill="#95a0b1" fill-rule="evenodd"/>
  <g transform="translate(-1.2998)" fill-rule="evenodd">
   <path d="m515.78 146.3c-93.866 0.70893-176.13 55.091-161.41 118.09 28.952 47.794 175.99 47.314 252.28 34.906 11.489 5.9743 17.881 10.158 35.875 29.438 6.4338 6.8934 12.752 3.6332 14.219-2.7812 4.3708-19.121 12.118-50.42 21.625-101.56-0.01288-4.3946-2.0104-15.358-8.75-20.656-44.877-41.336-101.19-57.835-153.84-57.437zm-8.4688 11.781c2.7265 0.02543 5.1627 0.67964 5.625 2.6875 0.72537 3.1501 0.81877 12.632-0.75 13.094-1.7412 0.51202-12.759 1.3685-13.594-0.4375-1.1004-2.3814-0.75691-12.984 0.5-13.844 0.74096-0.50699 4.7133-1.5327 8.2188-1.5zm32.062 0.71875c4.1075-0.03635 9.2624 0.8158 9.3125 3.4688 0.05891 3.232 0.28753 13.664-1.2812 14.125-1.7412 0.51202-12.766 0.02788-13.719-1.7188-0.98548-1.8069-0.392-13.654 0.75-15.031 0.38209-0.46071 2.473-0.82194 4.9375-0.84375zm-65.156 2.5312c1.6283-0.05467 2.9233 0.23675 3.3438 1.1562 0.49853 1.0902 1.4438 12.316-0.125 14.156-1.1775 1.3811-12.652 4.2936-13.281 2.4062-0.81315-2.4388-0.90811-14.15 0.40625-15.125 0.88134-0.65372 6.074-2.4735 9.6562-2.5938zm96.844 4.0312c3.7048-0.04695 11.841 1.6137 11.906 5.0625 0.05891 3.232 0.81878 13.382-0.75 13.844-1.7412 0.51202-12.909-2.2812-13.656-4.125-0.7557-1.8644-0.30334-13.551 0.78125-14.469 0.22849-0.19328 0.86381-0.30167 1.7188-0.3125zm-128.94 4.3125c1.2168-0.12246 2.1623 0.1713 2.4688 1.0938 0.73399 2.2092 0.74937 12.755-0.1875 14.25-0.96357 1.538-11.792 6.2048-12.406 4.3125-0.69825-2.1516-0.80978-12.078-0.28125-13.781 0.45165-1.4551 6.756-5.5076 10.406-5.875zm161.44 5.7188c2.9161 0.03907 10.93 2.6296 11 6.3438 0.05891 3.232 0.06876 14.195-1.5 14.656-1.7412 0.51202-11.156-3.5142-11.938-5.3438-0.69825-1.6346 0.38924-14.812 1.5312-15.5 0.17092-0.10292 0.48967-0.16183 0.90625-0.15625zm-190.78 7.5625c0.19753-0.01979 0.39623-0.02166 0.5625 0 0.61393 0.07999 1.0167 0.4541 1.0312 1.25 0.05891 3.232 0.12254 11.699-0.125 13.406-0.26047 1.7961-9.3217 8.2435-10.156 6.4375-1.1004-2.3814-1.0515-12.782-0.65625-14.906 0.22244-1.1953 6.3808-5.8906 9.3438-6.1875zm221.09 7.5625c2.1366-0.06515 9.7684 4.1463 9.875 8.125 0.05891 2.198-1.6619 14.466-2.6562 14.812-1.7138 0.59712-9.7591-4.8796-10.344-6.7812-0.41699-1.3563 0.89244-15.176 2.7812-16.094 0.08973-0.04359 0.20131-0.05816 0.34375-0.0625zm-246.31 9.6562c0.42669 0.03007 0.70692 0.3637 0.78125 1.1562 0.1738 1.8534 1.0991 13.331-0.125 15.344-0.94319 1.5505-6.7905 8.6498-7.625 6.8438-1.1004-2.3814-1.0831-14.225-0.125-16.094 0.79311-1.5468 5.2448-7.3803 7.0938-7.25zm271.5 9.6875c2.1401-0.06524 9.7998 4.1456 9.875 8.125 0.05891 3.232-1.65 15.039-3.2188 15.5-1.7412 0.51202-8.353-5.8815-9.1875-7.6875-1.1004-2.3814 0.29869-14.958 2.1875-15.875 0.08973-0.04359 0.20108-0.05815 0.34375-0.0625zm-291.56 12.969c0.31887-0.07931 0.58207 0.07017 0.78125 0.5625 0.93505 2.3112 1.4571 10.239 0.75 13.688-0.36455 1.7779-3.9941 6.9715-4.6562 5.625-1.1577-2.354-1.6521-10.706-1.125-12.469 0.65474-2.19 2.8682-7.0626 4.25-7.4062zm-11.188 25.75c0.65954-0.12342 0.99231 3.2234 1.0625 6.9375 0.05891 3.232-0.7372 7.3131-1.7812 6.8125-0.54528-0.26145-0.59464-3.0736-0.75-4.125-0.21652-1.4655-0.15809-7.3086 1.1562-9.375 0.10708-0.16834 0.21828-0.23237 0.3125-0.25z" fill="#d8d8d2" filter="url(#e)"/>
   <path d="m515.57 147.66c-93.866 0.70893-176.13 55.091-161.41 118.09 28.952 47.794 175.99 47.314 252.28 34.906 11.489 5.9743 17.881 10.158 35.875 29.438 6.4338 6.8934 12.752 3.6332 14.219-2.7812 4.3708-19.121 12.118-50.42 21.625-101.56-0.01288-4.3946-2.0104-15.358-8.75-20.656-44.877-41.336-101.19-57.835-153.84-57.437zm-8.4688 11.781c2.7265 0.02543 5.1627 0.67964 5.625 2.6875 0.72537 3.1501 0.81877 12.632-0.75 13.094-1.7412 0.51202-12.759 1.3685-13.594-0.4375-1.1004-2.3814-0.75691-12.984 0.5-13.844 0.74096-0.50699 4.7133-1.5327 8.2188-1.5zm32.062 0.71875c4.1075-0.03635 9.2624 0.8158 9.3125 3.4688 0.05891 3.232 0.28753 13.664-1.2812 14.125-1.7412 0.51202-12.766 0.02788-13.719-1.7188-0.98548-1.8069-0.392-13.654 0.75-15.031 0.38209-0.46071 2.473-0.82194 4.9375-0.84375zm-65.156 2.5312c1.6283-0.05467 2.9233 0.23675 3.3438 1.1562 0.49853 1.0902 1.4438 12.316-0.125 14.156-1.1775 1.3811-12.652 4.2936-13.281 2.4062-0.81315-2.4388-0.90811-14.15 0.40625-15.125 0.88134-0.65372 6.074-2.4735 9.6562-2.5938zm96.844 4.0312c3.7048-0.04695 11.841 1.6137 11.906 5.0625 0.05891 3.232 0.81878 13.382-0.75 13.844-1.7412 0.51202-12.909-2.2812-13.656-4.125-0.7557-1.8644-0.30334-13.551 0.78125-14.469 0.22849-0.19328 0.86381-0.30167 1.7188-0.3125zm-128.94 4.3125c1.2168-0.12246 2.1623 0.1713 2.4688 1.0938 0.73399 2.2092 0.74937 12.755-0.1875 14.25-0.96357 1.538-11.792 6.2048-12.406 4.3125-0.69825-2.1516-0.80978-12.078-0.28125-13.781 0.45165-1.4551 6.756-5.5076 10.406-5.875zm161.44 5.7188c2.9161 0.03907 10.93 2.6296 11 6.3438 0.05891 3.232 0.06876 14.195-1.5 14.656-1.7412 0.51202-11.156-3.5142-11.938-5.3438-0.69825-1.6346 0.38924-14.812 1.5312-15.5 0.17092-0.10292 0.48967-0.16183 0.90625-0.15625zm-190.78 7.5625c0.19753-0.01979 0.39623-0.02166 0.5625 0 0.61393 0.07999 1.0167 0.4541 1.0312 1.25 0.05891 3.232 0.12254 11.699-0.125 13.406-0.26047 1.7961-9.3217 8.2435-10.156 6.4375-1.1004-2.3814-1.0515-12.782-0.65625-14.906 0.22244-1.1953 6.3808-5.8906 9.3438-6.1875zm221.09 7.5625c2.1366-0.06515 9.7684 4.1463 9.875 8.125 0.05891 2.198-1.6619 14.466-2.6562 14.812-1.7138 0.59712-9.7591-4.8796-10.344-6.7812-0.41699-1.3563 0.89244-15.176 2.7812-16.094 0.08973-0.04359 0.20131-0.05816 0.34375-0.0625zm-246.31 9.6562c0.42669 0.03007 0.70692 0.3637 0.78125 1.1562 0.1738 1.8534 1.0991 13.331-0.125 15.344-0.94319 1.5505-6.7905 8.6498-7.625 6.8438-1.1004-2.3814-1.0831-14.225-0.125-16.094 0.79311-1.5468 5.2448-7.3803 7.0938-7.25zm271.5 9.6875c2.1401-0.06524 9.7998 4.1456 9.875 8.125 0.05891 3.232-1.65 15.039-3.2188 15.5-1.7412 0.51202-8.353-5.8815-9.1875-7.6875-1.1004-2.3814 0.29869-14.958 2.1875-15.875 0.08973-0.04359 0.20108-0.05815 0.34375-0.0625zm-291.56 12.969c0.31887-0.07931 0.58207 0.07017 0.78125 0.5625 0.93505 2.3112 1.4571 10.239 0.75 13.688-0.36455 1.7779-3.9941 6.9715-4.6562 5.625-1.1577-2.354-1.6521-10.706-1.125-12.469 0.65474-2.19 2.8682-7.0626 4.25-7.4062zm-11.188 25.75c0.65954-0.12342 0.99231 3.2234 1.0625 6.9375 0.05891 3.232-0.7372 7.3131-1.7812 6.8125-0.54528-0.26145-0.59464-3.0736-0.75-4.125-0.21652-1.4655-0.15809-7.3086 1.1562-9.375 0.10708-0.16834 0.21828-0.23237 0.3125-0.25z" fill="#291a0f" filter="url(#e)"/>
   <path d="m515.73 147.34c-93.866 0.70893-176.13 55.091-161.41 118.09 28.952 47.794 175.99 47.314 252.28 34.906 11.489 5.9743 17.881 10.158 35.875 29.438 6.4338 6.8934 12.752 3.6332 14.219-2.7812 4.3708-19.121 12.118-50.42 21.625-101.56-0.01288-4.3946-2.0104-15.358-8.75-20.656-44.877-41.336-101.19-57.835-153.84-57.437zm-8.4688 11.781c2.7265 0.02543 5.1627 0.67964 5.625 2.6875 0.72537 3.1501 0.81877 12.632-0.75 13.094-1.7412 0.51202-12.759 1.3685-13.594-0.4375-1.1004-2.3814-0.75691-12.984 0.5-13.844 0.74096-0.50699 4.7133-1.5327 8.2188-1.5zm32.062 0.71875c4.1075-0.03635 9.2624 0.8158 9.3125 3.4688 0.05891 3.232 0.28753 13.664-1.2812 14.125-1.7412 0.51202-12.766 0.02788-13.719-1.7188-0.98548-1.8069-0.392-13.654 0.75-15.031 0.38209-0.46071 2.473-0.82194 4.9375-0.84375zm-65.156 2.5312c1.6283-0.05467 2.9233 0.23675 3.3438 1.1562 0.49853 1.0902 1.4438 12.316-0.125 14.156-1.1775 1.3811-12.652 4.2936-13.281 2.4062-0.81315-2.4388-0.90811-14.15 0.40625-15.125 0.88134-0.65372 6.074-2.4735 9.6562-2.5938zm96.844 4.0312c3.7048-0.04695 11.841 1.6137 11.906 5.0625 0.05891 3.232 0.81878 13.382-0.75 13.844-1.7412 0.51202-12.909-2.2812-13.656-4.125-0.7557-1.8644-0.30334-13.551 0.78125-14.469 0.22849-0.19328 0.86381-0.30167 1.7188-0.3125zm-128.94 4.3125c1.2168-0.12246 2.1623 0.1713 2.4688 1.0938 0.73399 2.2092 0.74937 12.755-0.1875 14.25-0.96357 1.538-11.792 6.2048-12.406 4.3125-0.69825-2.1516-0.80978-12.078-0.28125-13.781 0.45165-1.4551 6.756-5.5076 10.406-5.875zm161.44 5.7188c2.9161 0.03907 10.93 2.6296 11 6.3438 0.05891 3.232 0.06876 14.195-1.5 14.656-1.7412 0.51202-11.156-3.5142-11.938-5.3438-0.69825-1.6346 0.38924-14.812 1.5312-15.5 0.17092-0.10292 0.48967-0.16183 0.90625-0.15625zm-190.78 7.5625c0.19753-0.01979 0.39623-0.02166 0.5625 0 0.61393 0.07999 1.0167 0.4541 1.0312 1.25 0.05891 3.232 0.12254 11.699-0.125 13.406-0.26047 1.7961-9.3217 8.2435-10.156 6.4375-1.1004-2.3814-1.0515-12.782-0.65625-14.906 0.22244-1.1953 6.3808-5.8906 9.3438-6.1875zm221.09 7.5625c2.1366-0.06515 9.7684 4.1463 9.875 8.125 0.05891 2.198-1.6619 14.466-2.6562 14.812-1.7138 0.59712-9.7591-4.8796-10.344-6.7812-0.41699-1.3563 0.89244-15.176 2.7812-16.094 0.08973-0.04359 0.20131-0.05816 0.34375-0.0625zm-246.31 9.6562c0.42669 0.03007 0.70692 0.3637 0.78125 1.1562 0.1738 1.8534 1.0991 13.331-0.125 15.344-0.94319 1.5505-6.7905 8.6498-7.625 6.8438-1.1004-2.3814-1.0831-14.225-0.125-16.094 0.79311-1.5468 5.2448-7.3803 7.0938-7.25zm271.5 9.6875c2.1401-0.06524 9.7998 4.1456 9.875 8.125 0.05891 3.232-1.65 15.039-3.2188 15.5-1.7412 0.51202-8.353-5.8815-9.1875-7.6875-1.1004-2.3814 0.29869-14.958 2.1875-15.875 0.08973-0.04359 0.20108-0.05815 0.34375-0.0625zm-291.56 12.969c0.31887-0.07931 0.58207 0.07017 0.78125 0.5625 0.93505 2.3112 1.4571 10.239 0.75 13.688-0.36455 1.7779-3.9941 6.9715-4.6562 5.625-1.1577-2.354-1.6521-10.706-1.125-12.469 0.65474-2.19 2.8682-7.0626 4.25-7.4062zm-11.188 25.75c0.65954-0.12342 0.99231 3.2234 1.0625 6.9375 0.05891 3.232-0.7372 7.3131-1.7812 6.8125-0.54528-0.26145-0.59464-3.0736-0.75-4.125-0.21652-1.4655-0.15809-7.3086 1.1562-9.375 0.10708-0.16834 0.21828-0.23237 0.3125-0.25z" fill="url(#t)"/>
  </g>
  <g fill="#050707" fill-rule="evenodd" filter="url(#ap)">
   <path d="m370.13 459.11c11.049 19.822 13.795 14.204 13.323 14.298 18.198-11.698-8.7738-93.263-13.323-158.25 0 0-16.207-50.045-16.085-50.206-9.0988 2.2747 12.836 166.22 16.085 194.16z"/>
   <path d="m354.2 267.88c30.384 25.184 44.76 8.2478 48.581 49.881-14.136-5.0368-37.939-25.103-42.488-31.115-1e-5 0-6.093-18.604-6.093-18.766z"/>
  </g>
  <path d="m354.85 270.48c0 16.846 14.625 124.56 17.648 141.52 1e-5 2e-5 24.864-98.997 24.597-99.26-16.185-15.935-28.873-27.725-42.244-42.259z" fill="url(#h)" fill-rule="evenodd" filter="url(#ai)" opacity=".97"/>
  <path d="m360.38 284.29c-0.32496 0 1.0103-1.5193 1.2998-1.2998 25.625 19.429 18.766 19.376 20.472 25.347 0 1e-5 -17.71-14.623-21.772-24.047z" fill="#06060c" fill-rule="evenodd" filter="url(#aj)" opacity=".91416"/>
  <path d="m360.29 283.92c118.57 105.24 196.69 63.11 242.19 22.669 0.45956 0.45955-22.978 159.47-23.438 159.47 1.2304 88.188-124.18 118.36-202.07 6.1252-4.136-56.526-14.381-143.68-16.679-188.26z" fill="url(#ad)" fill-rule="evenodd"/>
  <path d="m603.45 306.38c-48.744 63.692-150.78 58.492-202.12 6.1742 44.194 35.095 130.31 55.568 202.12-6.1742z" fill="#06060c" fill-rule="evenodd" opacity=".70386"/>
  <path d="m386.66 269.18c-2.7506 9.5358 9.5443 24.129 10.741 33.956 0.15441 1.2679-1.8946 3.6306 0.9777 10.581 51.03 43.239 147.77 61.889 204.83-7.2578l8.1398-30.547c-29.369 63.024-173.74 93.838-224.69-6.7329z" fill="url(#o)" fill-rule="evenodd" filter="url(#c)"/>
  <path d="m473.55 151.07c-51.96 9.7332-73.843 27.563-87.55 50.519 0.2816-0.04564 0.51494-0.35 0.6876 0.15625 0.38414 1.1263 0.37826 15.058 0.16876 15.931-0.17663 0.73626-7.7328 6.9911-7.9688 6.1562-0.43816-1.55-0.31697-3.0013-0.48137-4.8688-2.7849 6.748-6.2202 13.983-8.9374 21.781 4.5494 2.7621 10.569 10.226 13.656 18.188 5.3619-32.983 33.557-59.858 88.15-69.281 0.1241-2.2331 0.0032-6.7569 0.3125-10.075-3.054 1.0638-6.7901 1.0518-8.1876 0.875-1.7361-0.21961-1.1732-12.598-0.48744-14.6 0.7093-2.0709 6.3882-3.779 10.369-3.9501 0.2758-4.3384 0.47454-8.0011 0.26874-10.831zm-32.612 19.675c0.5834-0.03641 1.1305 0.0041 1.6562 0.125 1.7054 0.39224 1.059 13.639 0.8125 14.781-0.2746 1.273-10.584 5.7535-12.594 4.8938-0.3255-0.13921-1.2516-12.4-0.4062-13.988 0.86829-1.6302 6.4473-5.5576 10.531-5.8125zm-29.375 13.625c0.4385-0.04517 0.83925-0.04723 1.125 0.15625 0.571 0.4066 0.44308 13.548 0.18133 14.463-0.41403 1.4463-9.2606 7.2846-10.081 6.0063-1.2823-1.9968-1.1003-13.859-0.6562-14.775 0.82683-1.7054 6.3615-5.534 9.4313-5.8502z" fill="url(#s)" fill-rule="evenodd" opacity=".35193"/>
  <path d="m353.61 266.4c0.80423-11.604 11.633-25.175 16.79-25.291 5.6436-0.12377 15.404 11.048 16.856 29.958 0.75968 9.8938 4.1254 14.268 6.4661 20.551s4.9565 12.038 4.8663 22.094c-25.62-27.918-44.716-36.763-44.979-47.313z" fill="#050707" fill-rule="evenodd" filter="url(#aq)"/>
  <path d="m384.27 263.22c0.08764 11.034 10.94 28.564 30.222 44.409 14.926 12.267 34.773 27.378 84.435 29.049 32.461 1.085 113.41-24.728 112.75-68.459-0.81192-53.584-56.57-80.152-112.82-80.783s-114.98 25.641-114.58 75.784z" fill="#060809" fill-rule="evenodd"/>
  <g transform="translate(-.91912,.45956)" fill-rule="evenodd" filter="url(#an)" opacity=".72103">
   <path d="m571.85 204.45c44.283 23.439 41.452 63.239 39.515 69.458-9.6329 30.925-62.984 54.421-111.9 55.022 46.753-2.0354 95.323-23.298 108.59-52.676 2.871-6.3558 8.8616-44.073-36.21-71.804z" fill="url(#ac)"/>
   <path d="m412.12 297.63c-38.848-35.822-24.13-86.256 55.306-107.6-54.258 15.946-100.26 56.468-55.306 107.6z" fill="url(#ab)"/>
   <path d="m396.5 258.37c3.7375-16.044 0.38521-27.995 44.908-49.24-44.433 23.961-42.652 41.316-44.908 49.24z" fill="url(#aa)"/>
   <path d="m592.34 261.77c-1.5518 13.007 2.4246 23.943-18.21 48.869 22.239-25.129 17.445-33.633 18.21-48.869z" fill="url(#z)" opacity=".18026"/>
  </g>
  <g fill-rule="evenodd" filter="url(#ak)">
   <path d="m434.28 277.87c11.41 24.875 59.604-33.507 39.522-42.739-30.298-13.928-51.011 17.693-39.522 42.739z" fill="url(#f)" filter="url(#ar)" opacity=".09013"/>
   <path d="m520.22 317.51c18.612-8.5018 26.54-13.212 34.237-21.714-1.7234 11.489-17.463 24.816-34.237 21.714z" fill="url(#j)" filter="url(#as)" opacity=".2103"/>
  </g>
  <path d="m451.78 249.15c-21.369 25.046-5.5456 59.668 34.204 59.513 43.903-0.17092 76.057-10.8 65.487-49.632-23.208-12.408-87.743-10.8-99.692-9.8805z" fill="#06060c" fill-rule="evenodd"/>
  <path d="m450.98 225.71c0.91912 29.871-0.15094 28.493 1.2277 48.254 8.425 20.798 87.421 36.02 98.671-5.0994 0.2297-17.463 0.9191-27.529 1.6084-44.303-44.577-0.22978-56.24 1.6084-101.51 1.1489z" fill="url(#y)" fill-rule="evenodd"/>
  <path d="m451.4 225.02c0.17157 44.002 102.07 45.343 102.25 3.2169 0.19963-45.372-102.42-47.334-102.25-3.2169z" fill="url(#x)" fill-rule="evenodd"/>
  <path d="m457.84 222.76c-2.1248 33.795 88.347 39.472 88.876 3.5745 0.53918-36.76-86.75-37.38-88.876-3.5745z" fill-rule="evenodd"/>
  <g transform="translate(.45956,-.45956)" fill-rule="evenodd" filter="url(#al)" opacity=".72103">
   <path d="m516.54 256.73c40.671-7.3529 48.483-34.467 19.531-54.458 30.561 29.182 11.949 44.347-19.531 54.458z" fill="url(#w)"/>
   <path d="m478.63 200.21c-29.871 10.34-20.68 28.033-18.957 33.548-3.2765-12.578-4.8177-21.837 18.957-33.548z" fill="url(#v)"/>
   <path d="m471.99 199.29c-28.263 9.7656-20.68 28.033-18.957 33.548-3.2765-12.578-4.0134-22.871 18.957-33.548z" fill="url(#u)"/>
  </g>
  <g transform="translate(-4.6019e-6 4.7956e-7)" fill-rule="evenodd" filter="url(#am)" opacity=".72532">
   <path d="m551.01 258.11c-1.3787 29.412-19.531 32.629-37.914 38.143 30.561-10.57 33.088-15.855 37.914-38.143z" fill="url(#r)" opacity=".35622"/>
   <path d="m554.69 266.38c3.2169 24.816-18.612 35.156-36.075 38.603 22.748-8.5018 33.548-15.165 36.075-38.603z" fill="url(#q)" opacity=".44635"/>
   <path d="m551.7 259.03c11.259 50.781-104.32 57.445-103.4-2.5276 4.3658 60.662 112.13 49.403 103.4 2.5276z" fill="url(#p)" opacity=".28326"/>
  </g>
  <path d="m591.12 160.97c-0.70572 24.225 0.649 5.1931-3.25 47.438 57.517 35.095 36.977 40.281 81.562 52.156 8.7579-38.635 6.5218-41.784 3.875-47.938-6.7548-15.708-55.866-43.207-82.188-51.656zm10.906 16.219c3.6275-0.15995 10.377 3.669 11.656 5.375 1.2999 1.9497 0.98105 14.638-0.96875 15.938s-11.369-2.7629-13.156-5.6875-1.7992-13.656 1.125-15.281c0.3656-0.20311 0.82555-0.3209 1.3438-0.34375zm29.844 14.719c2.6447 0.00152 10.297 5.5823 10.906 7.5625 0.64989 2.1122-1.2224 14.676-3.25 15.75-1.953 1.0343-8.3473-4.3668-10.062-6-2.2634-2.1552-0.153-16.369 1.9375-17.219 0.12819-0.05211 0.29205-0.09385 0.46875-0.09375zm-15.156 18.406c1.0537 1.1802 0.23384 8.8267-1.375 8.75-1.7176-0.08191-5.314-1.7956-5.944-3.1627-0.76135-1.652 0.06494-7.1667 1.925-7.6122 1.6344-0.3915 4.3403 0.84476 5.394 2.0249zm40.906 0.34375c0.07828-0.01976 0.1686-0.01015 0.25 0 2.7597 0.34496 8.6373 5.2066 9.125 7.9688s-0.50665 14.969-2.7812 15.781c-2.6058 0.93064-8.9894-4.6269-9.5938-6.8438-0.47232-1.7314 0.5701-16.294 3-16.906zm-31.125 6.1562c2.4938 0.07458 7.0228 3.8124 8 5.875 0.73118 1.5435 0.00595 8.9314-1.7812 9.9062-2.4416 1.3318-8.4434-3.3108-9.2812-5.1875-1.4967-3.3525 0.31235-10.107 2.5938-10.562 0.14669-0.02927 0.30235-0.03622 0.46875-0.03125zm21.344 13.094c2.895-0.11248 10.363 5.3355 11.031 7.5625 0.48738 1.6248-2.6254 10.244-4.25 10.406-2.6069 0.2607-10.433-4.0228-11.344-5.8438-0.97491-1.9498 2.4377-11.381 4.0625-12.031 0.14909-0.05964 0.307-0.08625 0.5-0.09375z" fill="url(#n)" fill-rule="evenodd" opacity=".4206"/>
  <g filter="url(#c)">
   <path d="m437.44 412.97v-45.812l30.906 11.049v5.4062l-24.844-8.8813v14.188l21.5 7.6859v5.4062l-21.5-7.6859v20.812l-6.0625-2.1673z"/>
   <path d="m477.29 424.99v-45.812l6.0625 0.97488v45.812l-6.0625-0.97488z"/>
   <path d="m493.76 427.59c-0.13359-24.5 0-45.812 0-45.812l6.0625-0.20647s-0.26723 22.883 0 40.406c9.7442 1.7822 22.562-0.76841 22.562-0.76841v5.4062s-7.1737 2.7219-28.625 0.97488z"/>
   <path d="m527.17 425.97 3.4302-45.812 9.3586-3.12 8.6926 28.73c0.79939 2.6789 1.378 4.69 1.7358 6.0333 0.65891-1.8447 1.6755-4.5704 3.0498-8.1772l13.636-35.625 8.3651-2.7887-3.4302 45.812-5.9934 1.998 2.871-38.344-16.524 42.895-5.6088 1.8698-10.669-34.47-2.9201 39-5.9934 1.998z"/>
   <path d="m404.49 477.53c-0.05828-2.7291-0.38641-5.7398 2.5646-2.515 4.6334 2.6685 4.6678-6.3952 0.42806-12.237-3.4608-5.473-8.0514-5.7559-7.6535-0.33339 0.83757 3.8116-4.3674-3.0568-2.5362-4.2001 0.49523-5.6372-6.9317-14.46-8.2911-9.5284-1.9975 2.785 2.7496 9.4738 3.6118 12.265-0.12039 4.8922-3.5823-0.96461-5.1241-5.0206-3.8932-9.6173 0.03854-17.823 6.6977-10.568 3.6092 2.0598 4.371 12.917 5.9797 8.471 4.0424-2.2946 12.238 9.2724 13.034 17.312 1.2467 7.546-2.3665 12.063-7.8839 7.0957l-0.82713-0.74023z" fill="#444" stroke="#444" stroke-width=".88505"/>
   <path d="m387.41 416.43c-3.283 0.34553-3.6501 6.8148-0.59019 13.469 4.426 9.3013 11.517 16.133 17.507 21.344 5.064 4.5766 9.7587 4.1501 9.5382-1.9688 0.29665-6.6656-6.4744-17.404-11.993-21.094-5.7963-4.483-9.0339 0.95251-5.543 9.5 4.0979 7.393-1.7879 0.02176-4.0261-2.875-3.9143-4.8465-6.6078-13.534-2.9411-13.469 3.0577 2.4463 3.4726 0.98572 3.0675-2.4062l-0.83102-0.65625-0.7748-0.5625c-1.3655-0.99558-2.4949-1.378-3.4141-1.2812zm12.409 15.344c2.7349-0.01875 7.748 5.0838 10.023 10.375 3.4189 7.6962-1.4196 9.7846-6.1349 4.3438-3.4406-3.2018-6.416-9.5354-5.7038-12.812 0.21799-1.3244 0.90362-1.9 1.8153-1.9062z" fill="#444" stroke="#444" stroke-width=".88505"/>
   <path d="m414.48 436.5-31.459-38.316c-0.01865-1.6538-0.51335-4.3802 1.785-0.81304l29.67 36.118c0.00141 1.0039 0.00281 2.0078 0.00422 3.0118z" fill="#444" stroke="#444" stroke-width=".88505"/>
   <path d="m413.04 405.77c-0.35424 0.81558 1.3005 5.1169-0.89161 2.7436l-24.008-21.316c1.2043 2.6548 7.3494 13.642 3.5313 10.206-4.083-3.0725-4.3817-9.1627-7.9724-13.746-1.8861-1.9204-4.5781-7.9848-1.7875-5.5256l31.128 27.638z" fill="#333" stroke="#333" stroke-width=".88505"/>
   <path d="m381.09 356.94c-2.2804 0.23264-2.8734 2.9798-1.0821 7.375 3.2942 8.0803 11.69 15.842 17.979 21.031 5.3511 4.3622 11.745 9.3577 14.916 8.5 3.5044-1.1948-0.04807-10.97-6.8256-18.094-6.94-7.422-14.451-13.767-20.9-17.5-1.6714-1.0173-3.0498-1.4182-4.0863-1.3125zm2.5848 4.7188c3.9353 0.22711 10.543 6.4993 15.978 11 4.5952 3.7059 11.647 11.578 11.005 15.531-1.2207 3.3988-8.3612-2.7831-13.199-6.6875-2.6204-2.1849-5.2752-4.4636-7.9105-7.0938-4.8721-4.1765-9.1996-12.598-5.8739-12.75z" fill="#333" stroke="#333" stroke-width=".88505"/>
   <path d="m380.1 333.26c-2.2724 0.23264-2.7716 2.9799-0.83025 7.375 3.5701 8.0804 12.236 15.873 18.702 21.062 5.5001 4.3622 12.065 9.3577 15.206 8.5 3.4636-1.1948-0.42811-11.002-7.449-18.125-7.1935-7.422-14.916-13.735-21.493-17.469-1.7061-1.0173-3.1036-1.4495-4.1365-1.3438zm2.7459 4.7188c3.943 0.2271 10.765 6.4993 16.353 11 4.7218 3.7059 12.043 11.578 11.536 15.531-1.1046 3.3988-8.4509-2.7518-13.422-6.6562-2.6951-2.185-5.433-4.4949-8.1582-7.125-5.0147-4.1765-9.6299-12.598-6.3094-12.75z" fill="#333" stroke="#333" stroke-width=".88505"/>
   <path d="m436.92 435.25v-10.021l6.7608 2.5997v1.1826l-5.4346-2.0897v3.1035l4.7031 1.8084v1.1826l-4.7031-1.8084v4.5527l-1.3262-0.50995z"/>
   <path d="m449.81 430.14c-1.4128-0.38282-2.5755-0.23272-3.4688 0.4663s-1.3438 1.8787-1.3438 3.5421c0 0.87956 0.17968 1.7915 0.5625 2.6837s0.94466 1.644 1.6875 2.301 1.5879 1.1178 2.5312 1.3734c0.87044 0.23587 1.6855 0.24418 2.4375 0.03551s1.3398-0.64735 1.75-1.3383 0.62499-1.5331 0.625-2.5494c-1e-5 -1.0026-0.20411-1.9521-0.59375-2.8484s-0.94467-1.6889-1.6875-2.3323-1.5749-1.083-2.5-1.3337zm0 1.1562c0.6608 0.17907 1.2503 0.50385 1.7812 0.98267s0.94303 1.0534 1.2188 1.7365 0.40624 1.4506 0.40625 2.2663c-1e-5 1.2897-0.3239 2.1792-0.96875 2.7062s-1.4707 0.66398-2.4688 0.39353c-0.97982-0.2655-1.7881-0.85202-2.4375-1.723s-0.96876-1.8986-0.96875-3.1062c-1e-5 -1.5085 0.32324-2.4863 1-2.9478s1.4987-0.56263 2.4375-0.30824z"/>
   <path d="m456.3125,432.53157v10.03125l1.3125.28936v-4.46875l1.5625.34448c.34179.07535.56835.15591.71875.22096 .20507.09535.42675.21648.625.38779s.40559.45791.65625.83218 .58137.90161.96875,1.58857l1.3125,2.38312 1.6875.37203-1.75-3.13581c-.34637-.60957-.70639-1.11277-1.09375-1.55364-.1823-.20425-.4616-.43314-.8125-.67913 .96158.07984 1.6647-.08286 2.125-.46901s.68749-.94999.6875-1.66093c-1e-005-.55143-.12827-1.07254-.40625-1.58956s-.66017-.90303-1.125-1.18552-1.13803-.53214-2.03125-.72908l-4.4375-.97831zm1.3125,1.38311 3.1875.70273c.74283.16378 1.28091.44582 1.625.82701s.53124.79942.53125,1.27337c-1e-005,.32357-.10352.60772-.28125.84425s-.43946.37155-.78125.42151-.80014.0111-1.40625-.12253l-2.875-.63384v-3.3125z"/>
   <path d="m477.43939,443.76832 1.32617.52953c-.278,1.04842-.77816,1.8056-1.50048,2.27156s-1.60532.62238-2.64893.46926c-1.08008-.15847-1.9585-.50724-2.63525-1.0463s-1.19174-1.25151-1.54493-2.13732-.52978-1.80721-.52978-2.76424c0-1.04362.19938-1.92468.59814-2.64321s.96615-1.22542 1.70215-1.52077 1.54606-.37814 2.43018-.24843c1.0026.14711 1.84569.52602 2.52929,1.13672s1.15983,1.39837 1.42872,2.36294l-1.30567.11606c-.23243-.76327-.56967-1.34367-1.01172-1.74122s-.99805-.64544-1.66797-.74374c-.77018-.11299-1.4139-.02287-1.93115.27037s-.8807.73554-1.09033,1.32685-.31446,1.21738-.31445,1.87818c-1e-005,.85222.12418,1.61442.37256,2.2866s.63459,1.20394 1.15869,1.59529 1.09146.63182 1.70214.72141c.74284.10899 1.37174-.01293 1.88672-.36576s.8636-.93742 1.0459-1.75378z"/>
   <path d="m484.8125,438.2954c-1.41277-.14355-2.57552.20347-3.46875,1.05377s-1.34375,2.10629-1.34375,3.7697c0,.87956.17968,1.7611.5625,2.58841s.94466,1.48401 1.6875,2.01523 1.58789.84885 2.53125.94471c.87044.08845 1.68554-.04128 2.4375-.37731s1.33983-.87426 1.75-1.63467 .62499-1.63897.625-2.65524c-1e-005-1.00261-.20411-1.91754-.59375-2.74784s-.94467-1.52892-1.6875-2.04647-1.57488-.81628-2.5-.91029zm0,1.15625c.6608.06716 1.25032.2921 1.78125.681s.94303.89369 1.21875,1.53009 .40624,1.38178.40625,2.19753c-1e-005,1.28972-.3239,2.23402-.96875,2.87031s-1.4707.91306-2.46875.81164c-.97982-.09956-1.78809-.5492-2.4375-1.31018s-.96876-1.73451-.96875-2.94219c-1e-005-1.50846.32324-2.54104 1-3.11714s1.4987-.81645 2.4375-.72106z"/>
   <path d="m491.23 448.99v-10.021l1.3262 0.06882v8.8389l4.9355 0.25614v1.1826l-6.2617-0.32496z"/>
   <path d="m503.47 439.27c-1.4128 1e-5 -2.5443 0.46518-3.4375 1.4062s-1.3438 2.2428-1.3438 3.9062c0 0.87956 0.17969 1.7428 0.5625 2.5312s0.94465 1.388 1.6875 1.8438 1.5879 0.6875 2.5312 0.6875c0.87044 0 1.6855-0.21256 2.4375-0.625s1.3398-1.0104 1.75-1.8125 0.59374-1.7025 0.59375-2.7188c-1e-5 -1.0026-0.17286-1.8968-0.5625-2.6875s-0.97592-1.4329-1.7188-1.875-1.5749-0.65624-2.5-0.65625zm0 1.1562c0.66081 1e-5 1.2816 0.16505 1.8125 0.5s0.91178 0.79786 1.1875 1.4062 0.43749 1.3405 0.4375 2.1562c-1e-5 1.2897-0.3239 2.2669-0.96875 2.9688s-1.4707 1.0625-2.4688 1.0625c-0.97983 0-1.7881-0.36751-2.4375-1.0625s-1-1.6361-1-2.8438c0-1.5084 0.35449-2.5739 1.0312-3.2188s1.4674-0.96874 2.4062-0.96875z"/>
   <path d="m510,439.29371v10.03125l1.3125-.1452v-4.46875l1.53125-.16939c.34179-.03781.5996-.03572.75-.02047 .20507.02746.3955.07865.59375.18432s.43684.32017.6875.61145 .55012.71258.9375,1.27129l1.34375,1.94509 1.65625-.18322-1.75-2.55641c-.34636-.49488-.70639-.87888-1.09375-1.1915-.1823-.14389-.43035-.28378-.78125-.41358 .96158-.23853 1.66471-.63402 2.125-1.17257s.68749-1.17762.6875-1.88856c-1e-005-.55143-.12827-1.03007-.40625-1.45506s-.66017-.68444-1.125-.81304-1.13803-.15535-2.03125-.05654l-4.4375.49089zm1.3125.94855 3.15625-.34915c.74283-.08217 1.31217.01826 1.65625.28552s.49999.62699.5,1.10094c-1e-005,.32357-.07227.63854-.25.93391s-.43946.51706-.78125.68017-.83139.27949-1.4375.34653l-2.84375.31458v-3.3125z"/>
   <path d="m523.51361,444.74428 1.25098-.31321c.05924.49166.1971.88049.41357,1.16651s.55257.49103 1.0083.61501 .96842.13957 1.53809.04675c.50585-.08242.95247-.23038 1.33984-.44389s.67561-.46669.86475-.75956 .28368-.59423.28369-.90413-.09115-.57417-.27344-.77918c-.1823-.20498-.48308-.35309-.90234-.44428-.26889-.061-.86361-.12702-1.78418-.19807s-1.56543-.17445-1.93457-.31026c-.47852-.17269-.83513-.42561-1.06983-.7588s-.35205-.7299-.35205-1.1902c0-.50585.14356-1.00206.43067-1.48863s.70638-.88869 1.25781-1.2064 1.16438-.53151 1.83887-.64142c.74283-.12103 1.39794-.10814 1.96533.03867s1.00374.42777 1.30908.84285 .46939.91474.49219,1.4989l-1.27149.30289c-.06836-.62233-.29964-1.06315-.69384-1.3225s-.97641-.32625-1.74659-.20077c-.80208.1307-1.38655.3729-1.75341.72661s-.5503.73795-.5503,1.15265c0,.36004.12988.63509.38965.82519s.92171.32036 1.99951.38856 1.81722.16079 2.21827.27772c.58332.17385 1.01399.44432 1.29199.81146s.41698.8196.41699,1.35736c-1e-005,.5332-.15268,1.06051-.45801,1.58194s-.74398.95976-1.31592,1.315-1.21566.59114-1.93115.70772c-.9069.14776-1.66683.13942-2.27978-.02503s-1.09375-.48373-1.44239-.95785-.53206-1.04466-.55029-1.71161z"/>
   <path d="m533.26 446.01v-10.021l1.3262-0.27529v8.8389l4.9356-1.0245v1.1826l-6.2617 1.2998z"/>
   <path d="m541.33 444.01v-10.021l1.3262-0.32496v10.021l-1.3262 0.32496z"/>
   <path d="m545,432.80628v10.03125l3.59375-1.26918c.60611-.21405 1.15787-.48248 1.625-.76138s.85709-.58167 1.1875-.91938 .62824-.74303.90625-1.2263 .50976-1.06088.6875-1.71155 .28124-1.33825.28125-2.09933c-1e-005-.89322-.14422-1.66031-.40625-2.26278s-.65886-1.00819-1.1875-1.26812c-.40561-.2031-.89453-.27066-1.46875-.20004-.41016.04915-1.00195.19761-1.78125.47282l-3.4375,1.21399zm1.3125.72397 2.125-.75046c.7884-.27843 1.33202-.41963 1.6875-.40846 .49218.01759.93717.26247 1.28125.70376s.49999,1.1815.5,2.22967c-1e-005,.75651-.07455,1.43291-.25,2.02579s-.43556,1.08937-.75,1.51487c-.22332.30218-.53028.59547-.90625.8513s-.87045.49491-1.53125.72828l-2.15625.7615v-7.65625z"/>
   <path d="m555.14 439.31v-10.021l7.2461-3.7783v1.1826l-5.9199 3.0868v3.0693l5.5439-2.8908v1.1758l-5.5439 2.8908v3.4111l6.1523-3.208v1.1826l-7.4785 3.8995z"/>
   <path d="m564.0097,431.55667 1.25098-.82278c.05924.46752.1971.80019.41358.99803s.55256.26595 1.0083.20429 .96842-.2549 1.53808-.57977c.50586-.28848.95247-.61836 1.33985-.98966s.67561-.7419.86474-1.1118 .28369-.70979.28369-1.01969-.09115-.53704-.27343-.6678-.48308-.15632-.90235-.07673c-.26888.04853-.86361.22477-1.78418.52871s-1.56543.46321-1.93457.47776c-.47852.02224-.83512-.08543-1.06982-.32302s-.35205-.58649-.35205-1.04679c0-.50585.14355-1.06054.43066-1.66406s.70638-1.17642 1.25781-1.71876 1.16439-1.00581 1.83887-1.39046c.74283-.42361 1.39794-.67757 1.96533-.76189s1.00374.01891 1.30908.30961 .4694.72353.49219,1.29842l-1.27148.8208c-.06837-.59447-.29965-.94108-.69385-1.03986s-.9764.07148-1.74658.51068c-.80209.45742-1.38656.9377-1.75342,1.44085s-.55029.9621-.55029,1.3768c0,.36004.12988.58219.38965.66647 .2552.08689.9217-.05508 1.99951-.42592s1.81721-.57943 2.21826-.62586c.58333-.06377 1.01399.03129 1.29199.28518s.41699.64974.41699,1.1875c0,.5332-.15267,1.1227-.458,1.76851s-.74399,1.26282-1.31592,1.85102-1.21567,1.08633-1.93115,1.49435c-.90691.51719-1.66684.8184-2.27979.90363s-1.09375-.03821-1.44238-.37031-.53207-.82793-.5503-1.48745z"/>
   <path d="m437.16 456.23v12.875l4.6562 1.8459c0.77929 0.30893 1.4619 0.50727 2.0625 0.59888s1.1064 0.06656 1.5312-0.04921 0.83007-0.33207 1.1875-0.6855 0.64647-0.86286 0.875-1.5281 0.34374-1.479 0.34375-2.4575c-1e-5 -1.1484-0.1631-2.2648-0.5-3.292s-0.85157-1.9509-1.5312-2.7945c-0.52149-0.65204-1.168-1.1993-1.9062-1.662-0.52735-0.33208-1.2793-0.69464-2.2812-1.0918l-4.4375-1.7592zm1.7188 2.1814 2.6875 1.0654c1.0137 0.40186 1.7617 0.80387 2.2188 1.1608 0.63281 0.49696 1.1514 1.1703 1.5938 2.0693s0.68749 2.0499 0.6875 3.3975c-1e-5 0.97266-0.11817 1.7393-0.34375 2.3325s-0.53321 1.0093-0.9375 1.2534c-0.28712 0.17329-0.67286 0.26256-1.1562 0.22913s-1.1504-0.2373-2-0.57411l-2.75-1.0902v-9.8438z"/>
   <path d="m453.69 462.31-4.9375 11.279 1.8125 0.58593 1.4062-3.4516 5.4062 1.7477 1.5 4.3912 1.9375 0.62634-5.2812-14.582-1.8438-0.59604zm0.875 1.6266c0.19921 0.76168 0.52734 1.7428 0.9375 2.9593l1.3438 4.0282-4.375-1.4143 1.4062-3.3266c0.29882-0.71784 0.52343-1.4734 0.6875-2.2465z"/>
   <path d="m465.82 478.65v-5.458l-4.9658-8.6562 2.0742 0.51355 2.54 4.5136c0.46874 0.84263 0.90527 1.6773 1.3096 2.5039 0.38671-0.57807 0.85546-1.2208 1.4062-1.9282l2.4961-3.1701 1.9863 0.49179-5.1416 6.1538v5.458l-1.7051-0.42216z"/>
   <path d="m474.14 480.51v-12.885l1.7051 0.20647v11.364l6.3457 0.76839v1.5205l-8.0508-0.97486z"/>
   <path d="m484.52 482.19v-12.885l1.7051 0.32496v12.885l-1.7051-0.32496z"/>
   <path d="m495.08944,478.32334v-1.51171l5.45801.58648v4.78125c-.8379.57659-1.70216.98477-2.59277,1.22454s-1.8047.30855-2.74219.2063c-1.26563-.13804-2.41553-.53444-3.44971-1.18923s-1.81494-1.52363-2.34228-2.60653-.79102-2.25716-.79102-3.52279c0-1.2539.26221-2.39572.78662-3.42544s1.27881-1.75457 2.26319-2.17456 2.11815-.55998 3.40136-.42005c.93164.10163 1.77392.34436 2.52686.72823s1.34325.86868 1.771,1.45438 .75291,1.32432.97558,2.21578l-1.53808.25413c-.19338-.67734-.43361-1.21916-.72071-1.62549s-.69727-.75133-1.23047-1.03507-1.125-.46107-1.77539-.53201c-.7793-.08499-1.45313-.03983-2.02148.13548s-1.02686.43733-1.37549.78602-.61963.74395-.81299,1.18574c-.32813.7611-.49219,1.60746-.49219,2.5391 0,1.14844.19776,2.13095.59327,2.94752s.97118,1.45358 1.72705,1.91102 1.55858.73248 2.4082.82514c.73827.08052 1.45898.01704 2.16211-.19046s1.23632-.45256 1.59961-.7352v-2.39942l-3.78809-.41315z"/>
   <path d="m503.27 483.32v-12.885l1.7051-0.10964v5.291l6.6973-0.43064v-5.291l1.7051-0.10964v12.885l-1.7051 0.10964v-6.0732l-6.6973 0.43064v6.0732l-1.7051 0.10964z"/>
   <path d="m519.5 481.81v-11.364l-4.2451 0.54029v-1.5205l10.213-1.2998v1.5205l-4.2627 0.54252v11.364l-1.7051 0.21701z"/>
   <path d="m437.92499,495.66903v7.15625l.9375.47351v-2.90625l1.84375.93123c1.01237.51133 1.70637.62715 2.09375.40126s.59375-.62263.59375-1.23136c0-.35482-.0739-.70985-.21875-1.07924s-.35613-.70298-.59375-.98739-.52344-.54953-.875-.78569c-.25066-.17216-.61849-.37487-1.09375-.61492l-2.6875-1.3574zm.9375,1.31726 1.84375.93123c.42968.21703.71549.38157.875.50445 .24739.19331.44238.41647.59375.70614s.21875.59227.21875.89174c0,.41342-.11784.68136-.375.77934s-.70053-.01007-1.3125-.31917l-1.84375-.93123v-2.5625z"/>
   <path d="m443.88133,498.59363v7.15625l.9375.45848v-3.1875l1.125.55018c.24414.11939.39257.20044.5.27577 .14648.10745.2959.24106.4375.40146s.32096.4291.5.74452 .37955.72467.65625,1.28969l.96875,1.97376 1.1875.58074-1.25-2.58006c-.2474-.50185-.50457-.93034-.78125-1.31956-.13022-.18088-.31186-.37582-.5625-.61884 .68684.24149 1.17121.23359 1.5.04606s.49999-.52891.5-1.03672c-1e-005-.39388-.08269-.77742-.28125-1.20004s-.48048-.79391-.8125-1.08485-.79948-.57848-1.4375-.8905l-3.1875-1.55884zm.9375,1.23973 2.28125,1.11563c.5306.2595.91048.57093 1.15625.90922s.37499.65734.375.99588c-1e-005,.23112-.06056.4297-.1875.56455s-.31837.19228-.5625.16242-.56706-.15231-1-.36404l-2.0625-1.00866v-2.375z"/>
   <path d="m454.875,503.30682c-1.00912-.3354-1.83073-.28068-2.46875.17944s-.9375,1.2815-.9375,2.46965c0,.62826.13281,1.26224.40625,1.91628s.6569,1.23657 1.1875,1.73844 1.13867.87847 1.8125,1.10244c.62174.20665 1.21289.26023 1.75.14416s.95703-.42149 1.25-.89703 .4375-1.06617.4375-1.79209c0-.71614-.15918-1.42563-.4375-2.08291s-.6569-1.21507-1.1875-1.7072-1.1517-.85154-1.8125-1.07118zm0,.8125c.472.15689.90202.40431 1.28125.7696s.67806.82206.875,1.32208 .28125,1.0108.28125,1.59348c0,.92123-.22689,1.57954-.6875,1.92775s-1.03711.40528-1.75.16834c-.69987-.23262-1.28613-.68106-1.75-1.33166s-.6875-1.39713-.6875-2.25976c0-1.07747.23535-1.77366.71875-2.07361s1.04817-.3391 1.71875-.11622z"/>
   <path d="m464.62598,511.8071 .94726.57976c-.19857.70663-.55583,1.17146-1.07178,1.39453s-1.14665.20062-1.89208-.06734c-.77149-.27732-1.39893-.65993-1.88233-1.14781s-.85124-1.07504-1.10351-1.76141-.37842-1.37138-.37842-2.05497c0-.74544.14241-1.34448.42724-1.79712s.69011-.72847 1.21582-.82761 1.10433-.03516 1.73584.19184c.71614.25743 1.31836.6562 1.80664,1.19629s.82845,1.17507 1.02051,1.90492l-.93262-.11551c-.16602-.58052-.4069-1.04633-.72265-1.39746s-.7129-.6127-1.19141-.78471c-.55013-.19774-1.00993-.2312-1.37939-.10033s-.62907.39156-.77881.78206-.22461.82178-.22461,1.29378c0,.60873.0887,1.17202.26611,1.68989s.45329.95639.82764,1.31557 .77962.61716 1.21582.77395c.53059.19072.97981.19921 1.34766.02545s.61685-.53836.74707-1.09377z"/>
   <path d="m466.52 514.78v-7.1582l5.1758 1.102v0.84473l-4.2285-0.90032v2.1924l3.96 0.84314v0.83985l-3.96-0.84314v2.4365l4.3945 0.93567v0.84473l-5.3418-1.1374z"/>
   <path d="m472.77758,514.25704 .89355.04928c.04232.3641.14079.67193.29541.92346s.3947.47131.72022.65932 .69173.31102 1.09863.36903c.36133.05152.68034.04329.95703-.02468s.48258-.18592.61768-.35384 .20263-.36255.20264-.5839-.06511-.43001-.19532-.61623-.34505-.35762-.64453-.51425c-.19206-.10225-.61686-.27918-1.27441-.53081s-1.11817-.46622-1.38184-.64379c-.3418-.22776-.59652-.48624-.76416-.77545s-.25146-.59818-.25146-.92696c0-.36132.10253-.68443.30761-.96933s.50456-.48063.89844-.58724 .8317-.12556 1.31348-.05689c.53059.07566.99853.22782 1.40381.45649s.71695.52459.93506.88772 .33528.75581.35156,1.17805l-.90821-.06113c-.04883-.45943-.21403-.82478-.4956-1.09604s-.69743-.44611-1.24756-.52455c-.57292-.08168-.9904-.03622-1.25244.13638s-.39307.40702-.39307.70323c0,.25717.09277.48199.27832.67445 .18229.19201.65837.42997 1.42823.71388s1.29801.51139 1.58447.68244c.41666.25147.72428.53864.92285.86155s.29785.67642.29785,1.06053-.10905.7242-.32715,1.03001-.53142.5232-.93994.65214-.86833.15696-1.37939.0841c-.64779-.09235-1.1906-.26414-1.62842-.51536s-.78125-.5842-1.03027-.99895-.38005-.86228-.39307-1.34266z"/>
   <path d="m479.29479,515.52589 .89355.0238c.04232.36289.14079.66791.29541.91504s.39469.46006.72022.63878 .69172.2913 1.09863.33771c.36132.04121.68033.02388.95703-.05198s.48258-.19968.61768-.37145 .20263-.36833.20263-.58968-.06511-.42815-.19531-.61065-.34506-.34779-.64453-.49587c-.19206-.09678-.61687-.2616-1.27442-.49448s-1.11816-.43433-1.38183-.60438c-.3418-.21802-.59652-.46924-.76416-.75367s-.25147-.59101-.25147-.91979c0-.36132.10254-.68736.30762-.9781s.50456-.49502.89844-.61285 .8317-.14928 1.31348-.09434c.53059.06052.99853.19934 1.4038.41646s.71696.50414.93506.86105 .33528.74625.35156,1.16802l-.9082-.03522c-.04883-.45804-.21403-.81868-.4956-1.08192s-.69744-.42623-1.24756-.48897c-.57292-.06534-.9904-.00798-1.25244.17209s-.39307.41823-.39307.71444c0,.25717.09277.47934.27832.66652 .18229.18681.65836.41118 1.42822.67314s1.29801.47439 1.58448.63727c.41666.23958.72427.51799.92285.83524s.29784.66792.29785,1.05203-.10906.72731-.32715,1.03934-.53142.53835-.93994.67894-.86833.18172-1.3794.12343c-.64778-.07388-1.19059-.23019-1.62841-.46893s-.78125-.56192-1.03028-.96957-.38004-.85144-.39306-1.33145z"/>
   <path d="m498.82752,517.12409 .94726.2879c-.19857.7678-.55583,1.34272-1.07177,1.72475s-1.14665.55391-1.89209.51563c-.77149-.03962-1.39893-.22891-1.88233-.56785s-.85123-.81276-1.10351-1.42142-.37842-1.25478-.37842-1.93837c0-.74544.14241-1.38836.42725-1.92875s.6901-.94111 1.21582-1.20221 1.10432-.37542 1.73584-.343c.71614.03679 1.31835.25 1.80664.63966s.82844.91982 1.0205,1.59049l-.93261.17183c-.16602-.52936-.40691-.92096-.72266-1.1748s-.71289-.39305-1.19141-.41763c-.55013-.02824-1.00993.07998-1.37939.32468s-.62907.58537-.77881,1.02201-.22461.89098-.22461,1.36298c0,.60873.08871,1.14469.26612,1.6079s.45328.81674.82763,1.06057 .77962.37695 1.21582.39935c.5306.02725.97982-.10268 1.34766-.38978s.61685-.72841.74707-1.32394z"/>
   <path d="m500.33 516.05v-0.88379h2.7002v0.88379h-2.7002z"/>
   <path d="m506.75 512.06-3.2812 4.625v0.8125h3.125v1.7188h0.875v-1.7188h0.96875v-0.8125h-0.96875v-4.625h-0.71875zm-0.15625 1.4062v3.2188h-2.25l2.25-3.2188z"/>
   <path d="m512.80701,518.49489-.87891.10832v-5.60059c-.21159.22791-.48909.46393-.83251.70807s-.65186.43354-.9253.56814v-.84961c.49154-.29169.92122-.6246 1.28907-.99871s.62825-.72521.78124-1.05331l.56641-.06981v7.1875z"/>
   <path d="m435.93 442.05s80.264 35.583 136.97-5.5243" fill="none" stroke="#000"/>
   <path d="m435.69 481.77s79.777 41.757 130.63-13.973" fill="none" stroke="#000"/>
  </g>
  <path d="m376.71 471.87c41.27 61.092 98.381 76.04 127.3 71.816 0.0808-134.9-1.2998-145.91-143.96-259.97 3.2496 43.869 11.455 132.26 16.654 188.15z" fill="url(#m)" fill-rule="evenodd"/>
 </g>
</svg>
