<?xml version="1.0" encoding="UTF-8"?>
<svg viewBox="0 0 1298.2335 516.12628" xmlns="http://www.w3.org/2000/svg" xmlns:xlink="http://www.w3.org/1999/xlink">
 <defs>
  <clipPath id="au">
   <path d="m211.88125-118.77687c-.14545.13344-.25962.3847-.33767.81375 .2307.4919.175.33393.17258.31325-.002-.014.065.0551.20913.28173 .63617,1.0006-16.89447,3.61911-16.79522,4.22572 .0236.14421.0802.25109.12473.38695 .0891.27185.20261.55825.27917.83669 .0541.19695.006.43781.10509.60944 .0701.12147.2764.0775.34762.19865 .10078.17145.0606.40969.11557.60745 .0778.27978.19319.54031.31662.79831 .0996.20824.21337.41675.3416.60606 .10073.1487.24822.25242.33016.41479 .18348.36354.0944.86591.31992,1.20394 .0798.11971.2661.10914.3813.19225 .073.0526.11308.12327.17475.18993 .12348.13348.27757.26039.38241.41079 .083.11903.0882.2905.17216.40917 .10637.15028.32615.20402.3914.37783 .0693.18445-.11.42588-.0105.59576 .11969.2044.40693.25491.5895.40706 1.94372,1.61976-.1434-.43986 2.5749.88358 .20014.0974.51527.0573.74364.12316 .58923.16979 1.08516.48928 1.72633.63228 .115.0256.28428-.0738.39191-.0391 .24226.0781.38938.21898.63714.29525s.54937.0804.82488.13253c.17547.0332.3581.0823.52261.12929l.97603.29116c.17049.0459.39482.0665.55115.12374 .24842.091.42762.23671.7055.30732 .24975.0635.6895-.1361.97106-.10869 1.81437.43333.96369-.32834 2.40563-.20348 .20805.018.3985.10655.61308.11164 .30392.007.64508-.14639.93185-.10744 .32105.0436.54598.2195.84609.28602s.63838.0313.96011.0747c.20348.0274.4287.13195.64464.13683 .3052.007.60164-.10052.90949-.10322 .34369-.003.67576.0618 1.01432.0702 .50723.0125 1.35454-.22145 1.85556-.20742 .20998.006.39521.10705.60407.11339 .2944.009.58081-.0957.87175-.096 .3187-.00036.66179.0958.98301.10756 .14297.005.27466-.0296.42092-.045 .31236-.033 2.34671-.27674 2.56437-.26527 .18911.01.35007.11567.53697.12648 .39315.0227.81414-.0804 1.2087-.11822l2.25916-.20563c.23862-.0205.45057-.0804.6771-.0578 .15866.0158.28404.12872.43989.14531 2.12576-.15539.53272-.23156 1.81756-.0145 .24711.0417.56457-.0883.79831-.0388 .18022.0382.30794.12628.48164.16732 .2284.054.4808-.0629.70097-.0203 .39599-.12638.42517.32032.65061.39553 .12494.0417.27728-.041.40076.001 .0871.0297.1073.13623.18326.1883 .11998.0823.26057.14192.39698.18927 .18257.0634.39464-.0604.57588.003 .0853.03.1025.16836.17649.22085 .21516.15263.80582.32052 1.03372.36659 .12822.0259.24858-.031.37186.00016 .13794.0349.26355.17226.40196.21896 .12376.0417.30982-.0931.40164.00023 .0459.0466-.0609.1581-.003.18763 .0388.0197.0796.006.12354,7e-005l.0618,4e-005c8.49123-1.96042 14.06225-4.7064 14.06225-7.7203 0-5.33483-18.40888-9.68247-41.61875-10.55812z"/>
  </clipPath>
  <clipPath id="at">
   <path d="m261.3-103.73c0 6.931-26.29 46.922-56.859 46.922s-53.842-39.991-53.842-46.922 24.781-12.55 55.351-12.55 55.351 5.6187 55.351 12.55z"/>
  </clipPath>
  <clipPath id="aq">
   <path d="m149.4-82.629-0.01-4.6112c1.1082-1.1505-1.5621-0.74401-2.8461-0.52592-8.7526 1.4867-17.828 3.0469-25.092 4.8954-7.912 2.0134-17.564 5.2119-21.389 6.789-4.5217 2.1375-1.903 6.102-2.3698 7.2114 15.595-5.488 33.597-9.2652 49.881-11.86 0.82425-0.13133 3.6717 0.36495 1.8262-1.8989z"/>
  </clipPath>
  <clipPath id="ap">
   <path d="m124.17-55.516c-8.8086 3.2151-20.36 9.3971-16.302 13.139l20.457 5.6597s1.049-0.97293 3.5286-1.5928 7.9922 1.2494 7.9922 1.2494c1.2555-5.4513 2.8579-9.8241 4.792-12.888 0.81605-1.2926 4.9435 4.7292 4.7818-5.6467l-0.0366-2.8193c0.38234-9.2234-18.396-0.75425-25.214 2.8981z"/>
  </clipPath>
  <clipPath id="ao">
   <path d="m145.55-74.099c-19.719 2.0174-28.956 5.4985-45.901 11.194-5.0151 1.7297-7.7558 7.8748-5.8752 7.6626 18.671-6.2275 32.699-10.17 52.325-11.623 1.1215-0.08305 3.4557 4.8259 3.3299-2.485l-0.0456-2.9619c0.21793-5.8483-2.5214-1.2518-3.8329-1.7864z"/>
  </clipPath>
  <clipPath id="am">
   <path d="m149.46-89.222c-43.291 5.4042-73.207 16.954-73.207 30.347 0 18.574 57.506 33.625 128.46 33.625s128.49-15.051 128.49-33.625c0-13.029-28.446-24.312-69.838-29.892l5e-3 1.606c-0.26112 27.413 12.31 24.424 12.31 30.215 0 18.839-17.67 18.8-85.009 18.8s-8.7035-9.4452-8.7035-26.735c0-9.5952-72.072-18.222-32.495-24.036l-0.0186-0.30561h3.9e-4z"/>
  </clipPath>
  <clipPath id="al">
   <path d="m206.3-93.46c-20.49 0-38.458-2.4394-48.522-6.1027-5.4153-1.9712-3.1793 47.983-1.218 49.517 3.9673 3.1044 48.894 6.7938 48.519-11.517l1.2207-31.898z"/>
  </clipPath>
  <clipPath id="as">
   <path d="m83.631 47.687v-53.963c26.097 19.39 99.124 23.669 99.124 23.669v53.963c-29.264-1.8119-73.026-4.2791-99.124-23.669z"/>
  </clipPath>
  <clipPath id="ar">
   <path d="m322.8 278.5-1.9418 2.2413c-59.132 21.638-113.01 26.928-130.41 12.547-0.2146 2.3972 0.0496 4.6826 0.83073 6.8172 8.1402 22.246 69.005 20.405 135.97-4.0973l-4.4432-17.508z"/>
  </clipPath>
  <clipPath id="an">
   <path d="m316.04-38.978c0.50944-0.54427 1.8121-0.81807 2.4129-1.2024 2.2888-1.3478 4.2322-2.4107 6.4669-3.7673 0.85338-0.1966 1.3678-1.228 2.2464-0.98273 0.51453 0.56157 2.2106 2.096 2.6384 2.7097 0.24297 0.73672 7.8812 5.4089 8.0015 6.1457 3.547 14.329-5.6191 12.94-13.899 9.1826-1.1188-0.34157-4.425-8.1475-5.5305-7.8026-0.66561 0.52889-0.22322-2.3681-0.64735-2.9217-0.43989-0.49767-1.4488-0.72198-1.6894-1.3614z"/>
  </clipPath>
  <filter id="ak">
   <feGaussianBlur stdDeviation=".722"/>
  </filter>
  <filter id="c">
   <feGaussianBlur stdDeviation=".4039"/>
  </filter>
  <filter id="ae">
   <feGaussianBlur stdDeviation=".66031"/>
  </filter>
  <filter id="z">
   <feGaussianBlur stdDeviation="1.0524"/>
  </filter>
  <filter id="w">
   <feGaussianBlur stdDeviation=".4641"/>
  </filter>
  <filter id="s">
   <feGaussianBlur stdDeviation="1.20348"/>
  </filter>
  <filter id="aj" x="-.03061" y="-.12056" width="1.0612" height="1.2411">
   <feGaussianBlur stdDeviation="1.44033"/>
  </filter>
  <filter id="ad" x="-.03085" y="-.10809" width="1.0617" height="1.2162">
   <feGaussianBlur stdDeviation=".69146"/>
  </filter>
  <filter id="ac" x="-.04487" y="-.18208" width="1.0897" height="1.3642">
   <feGaussianBlur stdDeviation=".60994"/>
  </filter>
  <filter id="ab" x="-.04665" y="-.15774" width="1.0933" height="1.3155">
   <feGaussianBlur stdDeviation=".6255"/>
  </filter>
  <filter id="y" x="-.05548" y="-.10252" width="1.111" height="1.205">
   <feGaussianBlur stdDeviation=".93154"/>
  </filter>
  <filter id="x" x="-.02126" y="-.11727" width="1.0425" height="1.2346">
   <feGaussianBlur stdDeviation=".89823"/>
  </filter>
  <filter id="v" x="-.02869" y="-.14682" width="1.0574" height="1.2936">
   <feGaussianBlur stdDeviation="1.06384"/>
  </filter>
  <filter id="u" x="-.02093" y="-.12867" width="1.0419" height="1.2573">
   <feGaussianBlur stdDeviation=".81511"/>
  </filter>
  <filter id="r" x="-.2042" y="-.17912" width="1.4084" height="1.3582">
   <feGaussianBlur stdDeviation="2.18189"/>
  </filter>
  <filter id="ai" x="-.54881" y="-.31274" width="2.0976" height="1.6255">
   <feGaussianBlur stdDeviation="1.72271"/>
  </filter>
  <filter id="ah" x="-.45907" y="-.27735" width="1.9181" height="1.5547">
   <feGaussianBlur stdDeviation="1.72271"/>
  </filter>
  <filter id="ag" x="-.48413" y="-.18836" width="1.9683" height="1.3767">
   <feGaussianBlur stdDeviation="1.29755"/>
  </filter>
  <filter id="af" x="-.61934" y="-.17957" width="2.2387" height="1.3591">
   <feGaussianBlur stdDeviation="1.8139"/>
  </filter>
  <filter id="b" x="-.47274" y="-.13707" width="1.9455" height="1.2741">
   <feGaussianBlur stdDeviation="1.38453"/>
  </filter>
  <filter id="aa" x="-.04872" y="-.13789" width="1.0974" height="1.2758">
   <feGaussianBlur stdDeviation="1.44522"/>
  </filter>
  <filter id="t" x="-.09945" y="-.11815" width="1.1989" height="1.2363">
   <feGaussianBlur stdDeviation=".65977"/>
  </filter>
  <linearGradient id="a">
   <stop stop-color="#434251" offset="0"/>
   <stop stop-color="#6a6d80" offset="1"/>
  </linearGradient>
  <linearGradient id="o" x1="195.44" x2="228.95" y1="-87.658" y2="-85.264" gradientUnits="userSpaceOnUse">
   <stop stop-color="#4f515b" offset="0"/>
   <stop stop-color="#40434c" offset=".60133"/>
   <stop stop-color="#0f0f0f" offset="1"/>
  </linearGradient>
  <linearGradient id="g" x1="149.59" x2="203.96" gradientUnits="userSpaceOnUse">
   <stop stop-color="#0d0b0c" offset="0"/>
   <stop stop-color="#626377" offset="1"/>
  </linearGradient>
  <linearGradient id="f" x1="297.86" x2="238.68" y1="-23.631" y2="-17.055" gradientUnits="userSpaceOnUse">
   <stop stop-color="#fff" offset="0"/>
   <stop stop-color="#fff" stop-opacity="0" offset="1"/>
  </linearGradient>
  <linearGradient id="q" x1="181.36" x2="88.653" y1="39.793" y2="37.359" gradientUnits="userSpaceOnUse">
   <stop stop-color="#696972" offset="0"/>
   <stop stop-color="#514f55" offset=".71614"/>
   <stop stop-color="#171c20" offset=".82357"/>
   <stop offset="1"/>
  </linearGradient>
  <linearGradient id="p" x1="181.89" x2="86.07" y1="17.967" y2="3.3347" gradientUnits="userSpaceOnUse">
   <stop stop-color="#b8bac8" offset="0"/>
   <stop stop-color="#b8bac8" stop-opacity="0" offset="1"/>
  </linearGradient>
  <linearGradient id="n" x1="204.85" x2="330.85" gradientUnits="userSpaceOnUse">
   <stop stop-color="#eceef1" offset="0"/>
   <stop stop-color="#bcc2d2" offset=".25"/>
   <stop stop-color="#afb5c5" offset=".5"/>
   <stop stop-color="#8f94a8" offset=".91018"/>
   <stop stop-color="#d9dbe1" offset=".93678"/>
   <stop stop-color="#a4a9bd" offset=".96839"/>
   <stop stop-color="#d0d3db" offset="1"/>
  </linearGradient>
  <linearGradient id="m" x1="114" x2="179" gradientUnits="userSpaceOnUse">
   <stop stop-color="#6e6f80" offset="0"/>
   <stop stop-color="#6f7585" offset=".25"/>
   <stop stop-color="#7d7e90" offset=".5"/>
   <stop stop-color="#676d7b" offset=".75"/>
   <stop stop-color="#5b5d6c" offset=".91031"/>
   <stop stop-color="#4f5260" offset="1"/>
  </linearGradient>
  <linearGradient id="l" x1="216.31" x2="332.7" y1="324.31" y2="324.88" gradientUnits="userSpaceOnUse">
   <stop stop-color="#b8bfcf" offset="0"/>
   <stop stop-color="#616169" offset=".67747"/>
   <stop stop-color="#0a0404" offset="1"/>
  </linearGradient>
  <linearGradient id="k" x1="230.2" x2="297.67" y1="308.53" y2="298.1" gradientUnits="userSpaceOnUse">
   <stop stop-color="#6e6f80" stop-opacity=".45946" offset="0"/>
   <stop stop-color="#757688" stop-opacity=".72941" offset=".19755"/>
   <stop stop-color="#7d7e90" offset=".5"/>
   <stop stop-color="#454754" stop-opacity=".63063" offset="1"/>
  </linearGradient>
  <linearGradient id="h" x1="322.9" x2="339.19" y1="-40.776" y2="-24.71" gradientUnits="userSpaceOnUse">
   <stop stop-color="#434251" offset="0"/>
   <stop stop-color="#434251" stop-opacity="0" offset="1"/>
  </linearGradient>
  <linearGradient id="e" x1="2e-5" x2="1041.5" gradientUnits="userSpaceOnUse">
   <stop offset="0"/>
   <stop stop-color="#030303" offset=".78411"/>
   <stop stop-color="#303238" offset=".86615"/>
   <stop stop-color="#616570" offset="1"/>
  </linearGradient>
  <linearGradient id="j" x1="319.31" x2="335.65" y1="-35.573" y2="-18.024" gradientUnits="userSpaceOnUse" xlink:href="#a"/>
  <linearGradient id="i" x1="331.49" x2="344.77" y1="-41.456" y2="-27.661" gradientUnits="userSpaceOnUse" xlink:href="#a"/>
  <mask id="d">
   <path d="m206.5-120.41c-30.988 0-56.188 6.2898-56.969 14.125h-0.0312v17.75c-43.32 4.9731-73.25 15.614-73.25 27.938v26.281c0.3438 17.013 57.744 30.781 128.5 30.781 70.969 0 128.5-13.854 128.5-30.938v-26.125c0-11.986-28.337-22.364-69.75-27.5v-18.188h-0.0312c-0.78033-7.8352-25.98-14.125-56.969-14.125z"/>
   <path d="m263.16-51.912c1.0094 1.098 1.5428 2.2414 1.5428 3.416 0 8.3881-27.199 15.188-60.752 15.188s-60.752-6.7999-60.752-15.188c0-2.2073 1.8834-4.3046 5.2705-6.197" fill="none" stroke="#fff"/>
   <path d="m203.96-94.365v1.2822c-13.592-1.1217-36.244-3.4198-54.367-6.2829v-4.4451c18.222 5.7588 41.581 8.846 54.367 9.4458z" fill="url(#g)"/>
   <path d="m263.36-74.293 4e-3 3c13.754 1.0864 28.935 4.1259 31.826 5.0318 0.85128 0.09747 1.0801-0.75846 0.37605-1.193-4.3187-1.4149-18.954-5.4944-32.206-6.8388z" fill="#fff" filter="url(#ac)"/>
   <path d="m263.39-86.108-0.0536 4.5096c13.25 1.0089 28.5 4.0969 31.39 5.0027 0.85128 0.09747 1.0801-1.3391 0.37605-1.7736-2.9253-1.4149-7.7415-4.6915-31.713-7.7387z" fill="#fff" filter="url(#ab)"/>
   <path d="m126.76-51.93c-8.8086 3.2151-14.027 5.8114-18.896 9.5534l20.457 5.6597s-1.2398-3.7195 1.2398-4.3394 8.6788 1.8598 8.6788 1.8598c1.2555-5.4513 2.9234-8.9154 4.8683-11.972 0.82239-1.2926 4.2478-3.9682 7.0706-4.5786l-0.0366-2.8193c-8.0862-0.83113-16.565 2.9841-23.383 6.6365z" clip-path="url(#ap)" fill="#fff" filter="url(#y)"/>
   <path d="m263.46-60.894c10.81 3.6656 24.779 3.2701 30.376 13.638 7.9953-0.18121 10.226 1.4838 14.367 2.8443-10.368 4.0448-20.737 6.5637-31.105 8.9341l6.8191-5.5792c-6.2365-1.0519-9.405-0.56971-12.398 0l-4.3394-0.61992-3.0996-10.539-0.61991-8.6788z" fill="#fff" filter="url(#z)"/>
   <path d="m150.25-72.312c-22.709 2.0889-30.444 4.5446-48.444 10.594-3.2888 1.1902-8.4031 4.9616-6.5226 4.7495 19.738-6.5834 33.237-10.676 55.012-12.382l-0.0456-2.9619z" clip-path="url(#ao)" fill="#fff" filter="url(#ad)"/>
   <path d="m98.877-70.813c16.886-5.7108 34.407-9.5556 51.006-11.817l-0.01-4.6112c-20.321 3.396-32.205 6.1492-46.037 11.158-4.5217 2.1375-4.4924 4.1599-4.9593 5.2693h1.1e-4z" clip-path="url(#aq)" fill="#fff" filter="url(#ae)"/>
   <path d="m149.46-89.222c-43.291 5.4042-77.174 16.954-77.174 30.347 0 18.574 61.168 37.897 132.12 37.897s136.73-18.714 136.73-37.287c0-13.029-34.549-29.195-77.773-30.502l5e-3 1.606c37.275 7.5771 62.053 20.151 62.053 25.942 0 18.839-53.375 31.312-120.71 31.312s-121.92-14.023-121.92-31.312c0-9.5952 27.11-21.884 66.686-27.698l-0.0186-0.30561h3.9e-4z" clip-path="url(#am)" fill="#fff" filter="url(#s)"/>
   <path d="m238.46-26.042v22.794c19.872-1.7534 42.694-5.1833 60.273-10.52v-22.027c-16.98 5.052-43.199 8.8285-60.273 9.7532z" fill="url(#f)" filter="url(#w)"/>
   <path d="m103.01-37.658c31.05 9.0959 61.516 12.217 93.477 12.493-3.5077 1.3416-9.6486 3.1131-20.054 2.6301-16.104-1.2127-32.008-2.4034-52.382-6.5752-9.7657-2.1285-17.753-5.041-21.041-8.5478z" fill="#fff" filter="url(#u)"/>
   <path d="m84.879-24.02c23.301 13.59 69.42 18.106 101.38 18.382-2.2679-1.448-6.0841-3.241-18.04-3.4141-16.104-1.2127-31.388-1.6285-51.762-5.8003-9.7657-2.1285-27.052-7.0557-31.579-9.1677z" fill="#fff" filter="url(#x)"/>
   <path d="m99.292-34.248c28.337 8.3011 56.188 12.731 85.133 12.643 10.262-0.16256-2.06 5.5551-12.175 4.6496-16.104-1.2127-32.008-2.4034-52.382-6.5752-9.7657-2.1285-17.288-7.2107-20.576-10.717z" fill="#fff" filter="url(#v)"/>
  </mask>
 </defs>
 <g transform="translate(955.56 120.41)">
  <path d="m82.88-29.281v345.41c-3.7976 3.7608-6.0626 7.7425-6.5001 11.875h-0.09849v22.719h0.06566c2.0004 23.372 61.649 42.125 134.93 42.125 74.542 0 134.96-19.411 134.96-43.344 0-3.4444-1.246-6.7876-3.6112-10 2.3631-3.2111 3.6112-6.5571 3.6112-10 0-3.8518-1.5606-7.6008-4.4976-11.156v-347.62h-258.86z" fill="#0b0a08"/>
 </g>
 <g transform="translate(955.56 120.41)">
  <path transform="matrix(1 0 0 1.0473 0 -1.061)" d="m172 10.292a3.5145 12.121 0 1 1 -7.029 0 3.5145 12.121 0 1 1 7.029 0z" fill="#626574" filter="url(#b)"/>
  <path transform="matrix(.63265 0 0 .9645 48.407 4.8123)" d="m172 10.292a3.5145 12.121 0 1 1 -7.029 0 3.5145 12.121 0 1 1 7.029 0z" fill="#5b5e65" filter="url(#af)"/>
  <path transform="matrix(1 0 0 1.0473 14.345 -.7741)" d="m172 10.292a3.5145 12.121 0 1 1 -7.029 0 3.5145 12.121 0 1 1 7.029 0z" fill="#474a51" filter="url(#b)"/>
  <path d="m83.631-6.2764c26.097 19.39 99.124 23.669 99.124 23.669v53.963c-29.264-1.8119-73.026-4.2791-99.124-23.669" fill="url(#q)"/>
  <g clip-path="url(#as)">
   <path d="m163.91956,15.74801c.37026.31929.2545.91722.21191,1.40427-.0421.48077-.22484,1.00421-.009,1.43588 .0433.08661.15956.11625.20287.20287 .0624.12468-.0624.28106 0,.40574 .0437.08731.172.11025.20287.20287 .11352.34057.0621.71396.0489,1.07271v2e-006c-.0142.38638-.0489.7722-.0489,1.15884 0,.14113-.0218.28161-.0296.42252l-1e-005,2e-006c-.007.13117-.0632.29603.0296.38895 .0536.05357.14931-.05356.20287,0 .0989.09892.0274.26857 0,.40574s-.0989.30682 0,.40574c.0536.05357.14931-.05356.20287,0v2e-006c.049.04901.0267.13398.0251.20325-.003.12498-.0142.24961-.0242.37423v2e-006c-.0169.21256-.0963.44902-.0009.63972 .10922.21845.2965.39015.40573.6086v2e-006c.15554.31106-.15553.70327 0,1.01434 .10923.21845.29651.39015.40574.6086 .0934.18662-.0934.42198 0,.6086 .0866.17325.31912.2325.40573.40574 .0505.10091.0218.21892.004.33039-.0192.1228.0873.22263.19846.27821v1e-006c.1409.07045.31217.04318.46966.04661 .2789.0061.55792.0012.83681-.0052 .44352-.01021.88718-.04143 1.33082-.04143l.60332.01393 .28336.0017c.0435-.001.1082.02323.12766-.01567 .0618-.12349-.0437-.27476 0-.40574 .0308-.09264.1592-.11554.20287-.20287 .15553-.31107-.15554-.70328 0-1.01434 .0433-.0866.15956-.11625.20286-.20287 .10765-.21529.0431-.47322 0-.71004s-.10765-.49474 0-.71004c.0433-.0866.15956-.11625.20287-.20287 .0934-.18662-.0933-.42194 0-.6086 .0555-.11085.13806-.2062.20985-.30726s.15811-.18801.19589-.30135c.0654-.1965-.0926-.42335 0-.6086 .0433-.0866.15956-.11625.20287-.20287 .0644-.12881-.10182-.30388 0-.40574v-2e-006c.0535-.05357.14931.05356.20287,2e-006v-2e-006c.0363-.03627.0251-.09824.0266-.14951 .002-.08874-.002-.17754-.006-.26618-.005-.08712-.0109-.17414-.0165-.26121v-2e-006c-.003-.04411-.0177-.09263-.004-.13457-.0195-.11359.0363-.24005.14908-.21645 .0895.01872.21576.09536.25665.01358 .0618-.12349-.0437-.27475 0-.40574 .0378-.11333.12672-.20395.19591-.30135s.15439-.19639.20983-.30726c.15365-.30731-.10868-.6884 0-1.01434 .0308-.09264.1592-.11554.20287-.20287 .0636-.1271.006-.28051-.0166-.42082-.0213-.13267-.0785-.29564.0166-.39065v-2e-006c.0536-.05357.1493.05356.20286,4e-006v-2e-006c.10159-.10158.0483-.28079.0468-.42444v-2e-006c-.003-.27142-.0202-.54246-.0358-.81345-.0164-.28448-.0344-.56895-.0413-.85382-.004-.1826-.0275-.37228.0303-.54557v-2e-006c.0308-.09264.1592-.11554.20287-.20287 .13889-.27778.063-.61588.0254-.92415s-.0555-.64256-.22824-.90166c-.0536-.0805-.11635-.15961-.20286-.20287-.0628-.0314-.13764-.0264-.20767-.03124h-1e-005c-.13855-.0096-.27747-.01254-.41634-.01467-.39931-.0061-.79871-.0011-1.19802.0051-.67749.01054-1.35489.04081-2.03246.04081h-3.44876c-.10532,0-.21029-.01491-.31547-.02014l-1e-005-1e-006c-.0982-.0049-.22359-.04939-.29312.02014-.1036.10364.0813.2838 0,.40574-.36236.54355-.57025,1.17368-.60861,1.82581z" fill="#c9cbda" filter="url(#ah)"/>
   <path d="m178.22476,15.61898c.16877,1.0044-.24702,2.05495 0,3.04302 .0369.14746.166.25827.20287.40574 .0329.13173 0,.26995 0,.40574 .0677.13543.15498.26209.20286.40573v2e-006c.065.19475-.065.41386 0,.6086 .0308.09264.1592.11554.20287.20287 .0752.15037.0574.32978.0543.49787-.005.25878-.0265.51692-.0467.77495-.0356.45482-.15188.93166-.008,1.36446 .0137.04123.044.07541.0678.11175l.13452.19999v2e-006c.067.09817.14098.19427.20281.29579 .0439.13099-.0427.27688.00059.4068v2e-006c.0479.14376.15495.26198.20287.40573 .12945.38839-.0993.82003 0,1.21721 .0441.17629.1243.34309.19118.51205s.11429.35189.21455.50229c.059.08851.12086.19535.22699.20259 .14886.01016.13157.26447.17875.40601 .11558.34676.20298.71021.40573,1.01434 .18761.28141.421.53006.60861.81147 .0841.12612.11191.28446.20287.40574 .20538.27384.65839.30244.81147.6086 .0303.06067.0667.12179.0719.18942v2e-006c.002.02025-.015.038-.0345.03211-.0277-.0084-.0511-.0269-.0737-.04497v-1e-006l-.0458-.04181c.008.0035.0135.0094.02.0151 .0168.01475.0332.03.0495.04532l.21546.21057c.16655.16661.44202.36945.6086.20287 .0502-.0502-.0225-.13554 0-.20287v-2e-006c.0479-.14388.11875-.27955.20287-.40574 .0547-.08202.10933-.16429.17136-.2409 .0183-.02259.0388-.0738.0612-.05524 .017.01406-.006.0409-.0148.06113-.0161.03742-.0354.07341-.0565.10822v2e-006c-.0186.03063-.0376.06176-.064.08603-.013.01198-.0343.01201-.0372-.0054-.032-.19125.0815-.37846.14287-.56241 .0313-.09416.1788-.10659.20287-.20287 .10481-.41924.0654-.86066.0511-1.29257-.0148-.44833-.0511-.89614-.0511-1.34472 0-.33552-.10616-.69606 0-1.01434 .0308-.09264.1592-.11554.20287-.20287 .0308-.06176-.0219-.13738 0-.20287v-2e-006c.0479-.14375.15495-.26198.20286-.40573 .21536-.64606-.16516-1.368 0-2.02868v-2e-006c.0368-.14723.15487-.26175.20287-.40573 .065-.19474-.065-.41386 0-.6086 .0311-.09353.1717-.10935.20287-.20287 .076-.22791.0549-.4769.0594-.7171 .008-.40539.002-.81092-.007-1.2163-.0142-.70804-.0528-1.41578-.0528-2.12396 0-.46179.0277-.92329.0375-1.38497 .006-.26957.0103-.53925.005-.80882-.003-.14857.0242-.31058-.0422-.44349v-2e-006c-.0691-.13826-.22031-.22353-.3734-.20212s-.30491.06584-.43807-.00074c-.0866-.04333-.11625-.15956-.20287-.20287v-1e-006c-.24885-.12443-.56262.12443-.81147,0-.0711-.03553.0562-.14666 0-.20287v-1e-006c-.0695-.06953-.19491-.02502-.29312-.02014-.10519.0052-.21017.02014-.31549.02014-1.35898,0-2.78785.17226-3.85449,1.01434z" fill="#afb1c0" filter="url(#ag)"/>
   <path d="m151.84381,13.26648c.23143.62143.21475,1.34454.60362,1.88167 .24477,1.17398-.2639,2.48316.29291,3.54529 .29158,1.04762.0527,2.27487.70649,3.14384 .32032.63829.20155,1.39562.23997,2.10874 .0719.48361.48301.84723.83969,1.18164 .36522.34241.79289.75633 1.28966.6943 .56196-.16038.77062-.87638.69-1.45519-.0177-.74824.15946-1.487.36736-2.206 .0411-.66811.10656-1.34862.37467-1.96195 .10909-.67875.27411-1.38594.73772-1.89354 .69457-.96292 1.02196-2.13339 1.36725-3.26935v-2e-006c.17086-.8385-.58732-1.72038-1.44148-1.77234-.65019-.1381-1.26715-.39719-1.8951-.61513-.91149-.1331-1.8371.10734-2.75741.06771-.51256.05254-1.03842.19904-1.41535.55032z" fill="#9298a8" filter="url(#ai)"/>
  </g>
  <path d="m82.414-5.7479c26.097 19.39 99.124 23.669 99.124 23.669" fill="none" stroke="url(#p)" stroke-dasharray="1.9984252, 0.9992126" stroke-linecap="square" stroke-width="1.5"/>
  <path d="m85.8-6.9129c28.495 17.451 96.78 21.496 96.78 21.496" fill="none" stroke="#000" stroke-dasharray="1.9984252, 0.9992126" stroke-linecap="square" stroke-width="1.5"/>
  <path d="m85.654-10.159c28.41 17.528 96.614 21.586 96.614 21.586" fill="none" stroke="#000" stroke-dasharray="1.9984252, 0.9992126" stroke-linecap="square" stroke-width="1.5"/>
  <path d="m330.84-25.969c-15.991 13.623-65.703 23.562-124.56 23.562h-1.4375v86.375h1.4375c58.86 0 108.57-9.9393 124.56-23.562v-86.375z" fill="url(#n)"/>
  <path d="m206.28 79.742c58.86 0 108.57-9.9393 124.56-23.562" fill="none" stroke="#000" stroke-width="3"/>
  <path d="m114 277.03v62.804c0 3.6178-2.4344 11.496-5.8832 13.896l5.8832 2.0498c17.406 5.7853 39.853 9.9246 65 11.625v-90.375h-65z" fill="url(#m)"/>
  <path d="m95.312 307.25c-12.392 6.5849-19.562 14.38-19.562 22.719 0 23.688 57.791 41.08 129.09 41.08l2.5938-1.4375c-71.302 0-129.12-17.392-129.12-41.08 0-7.7411 6.2004-15.012 17-21.281z" fill="#707686"/>
  <path d="m204.26 282.28v85.781h1.0625c71.302 0 129.09-19.187 129.09-42.875s-57.791-42.906-129.09-42.906h-1.0625z" fill="url(#l)"/>
  <path transform="rotate(20.099)" d="m285.44 310.4c-3.7754 2.9136-31.844 9.1529-43.596 5.8-6.3917 0-16.995-4.0455-16.995-8.1025s21.546-9.5924 27.938-9.5924c2.1683-0.0337 19.76-4.8654 27.109-6.7962 5.7577-0.16263 17.84 0.15957 19.235 3.9695s-8.3704 12.775-13.691 14.722z" clip-path="url(#ar)" fill="url(#k)" filter="url(#aa)"/>
  <path d="m182.59-4.0299h21.885v76.746h-21.885z"/>
 </g>
 <g transform="translate(955.56 120.41)">
  <path d="m206.5-120.41c-30.988 0-56.188 6.2898-56.969 14.125h-0.0312v17.75c-43.32 4.9731-73.25 15.614-73.25 27.938v26.281c0.3438 17.013 57.744 30.781 128.5 30.781 70.969 0 128.5-13.854 128.5-30.938v-26.125c0-11.986-28.337-22.364-69.75-27.5v-18.188h-0.0312c-0.78033-7.8352-25.98-14.125-56.969-14.125z" fill="#0f0f0f"/>
 </g>
 <g transform="translate(955.56 120.41)">
  <path d="m206.5-120.41c-30.988 0-56.188 6.2898-56.969 14.125h-0.0312v17.75c-43.32 4.9731-73.25 15.614-73.25 27.938v26.281c0.3438 17.013 57.744 30.781 128.5 30.781 70.969 0 128.5-13.854 128.5-30.938v-26.125c0-11.986-28.337-22.364-69.75-27.5v-18.188h-0.0312c-0.78033-7.8352-25.98-14.125-56.969-14.125z" fill="#515362" mask="url(#d)"/>
  <path transform="matrix(1.02 0 0 1.0793 -4.1138 5.2215)" d="m262.41-105.94a56.456 14.336 0 1 1 -112.91 0 56.456 14.336 0 1 1 112.91 0z" clip-path="url(#at)" fill="#797c8b" filter="url(#aj)"/>
  <path transform="translate(-.39549 -1.582)" d="m253.9-106.64a47.657 10.876 0 1 1 -95.313 0 47.657 10.876 0 1 1 95.313 0z" fill="#0f0d0e"/>
  <path d="m214.46875-118.90625c-.13983.13316-.24659.38405-.3125.8125 .24557.49115.19985.33327.1875.3125 .009-.0139.0678.0548.21875.28125 .66598.99897-.008.006.1875.59375 .0466.13983.12159.24317.1875.375 .13183.26366.29013.54155.40625.8125 .0821.19159.0625.427.1875.59375 .0884.11792.31781.0696.40625.1875 .12506.16675.11009.40022.1875.59375 .10948.2737.25459.52848.40625.78125 .12227.20379.25778.40817.40625.59375 .11646.14558.27908.24638.375.40625 .21448.35747.15612.854.40625,1.1875 .0884.11792.28361.10574.40625.1875 .0776.0517.12159.12159.1875.1875 .13183.13183.29439.25711.40625.40625 .0884.11792.0991.28834.1875.40625 .11186.14915.33701.2019.40625.375 .0734.18361-.10174.42418 0,.59375 .12227.20379.41118.2541.59375.40625 1.94372,1.61976-.58674-.36799.96875,1.1875 .10422.10422.28833.0991.40625.1875 .29829.22372.471.60567.78125.8125 .0548.0366.14089-.0466.1875,0 .10422.10422.1145.27078.21875.375s.25237.13699.375.21875c.0776.0517.15283.12159.21875.1875l.375.40625c.0659.0659.16705.10994.21875.1875 .0818.12264.0832.30203.1875.40625 .0932.0932.28834-.0589.40625,0 .65584.65584-.20693-.10345.375.1875 .0834.0417.13032.15803.21875.1875 .12507.0417.26531-.0731.375,0 .12264.0818.1145.30203.21875.40625s.25236.10574.375.1875c.0776.0517.13032.18928.21875.21875 .12507.0417.24711-.032.375,0 .14299.0358.26642.14089.40625.1875 .21013.07.57112-.07.78125,0 .0884.0295.13031.15803.21875.1875 .12506.0417.24317,0 .375,0 .13183.0659.26642.17214.40625.21875 .0625.0208.12159,0 .1875,0 .14137,0 1.08628-.0337 1.1875,0 .0884.0295.13032.15803.21875.1875 .1876.0625.396,0 .59375,0h1.1875c.13183,0 .24993-.0417.375,0 .0884.0295.13032.15802.21875.1875 1.31168,0-.27914-.0722.59375.21875 .17797.0593.41578-.0593.59375,0 .13983.0466.23517.14089.375.1875 .1876.0625.4019-.048.59375,0 .3579-.11919.36829.33109.59375.40625 .12506.0417.28118-.0417.40625,0 .0884.0295.10994.13579.1875.1875 .12264.0818.26643.14089.40625.1875 .1876.0625.40615-.0625.59375,0 .0884.0295.10994.16704.1875.21875 .226.15066.7703.32906 1,.375 .12927.0259.24317,0 .375,0 .13183.0659.26642.17214.40625.21875 .12506.0417.31303-.0932.40625,0 .0466.0466-.059.15802 0,.1875 .0393.0197.0803.005.125,0h.0625c8.67779-1.96978 14.03125-4.70485 14.03125-7.71875 0-5.33483-16.82671-9.76158-39.03125-10.6875z" clip-path="url(#au)" fill="#2d2d35" filter="url(#ak)"/>
  <path transform="matrix(-1.0582 0 0 1.1472 464.08 14.37)" d="m196.45-98.929c9.0005 2.7712 17.811 4.2971 27.076 6.1188 3.6141 0.71058 6.2402 2.7831 6.2402 6.2402v10.256c0 3.4571-2.7831 7.0954-6.2402 6.2402-9.5753-2.1227-16.672-3.1774-27.076-6.1188-3.4571-0.85521-2.6858-2.6121-2.6858-6.0692v-10.256c0-3.4571-0.72047-7.46 2.6858-6.4112z" fill="url(#o)" filter="url(#c)"/>
  <g clip-path="url(#al)" fill="#515362">
   <path transform="matrix(1.3946 0 0 1.7314 -70.38 60.267)" d="m171.76-96.604 13.164 1.8806c3.4571 0 6.2402 2.7831 6.2402 6.2402v14.874c0 3.4571-2.7831 6.2402-6.2402 6.2402l-13.164-1.8806c-3.4571 0-6.2402-2.7831-6.2402-6.2402v-14.874c0-3.4571 2.7831-6.2402 6.2402-6.2402z" filter="url(#r)"/>
   <path d="m171.76-96.604 13.164 1.8806c3.4571 0 6.2402 2.7831 6.2402 6.2402v14.874c0 3.4571-2.7831 6.2402-6.2402 6.2402l-13.164-1.8806c-3.4571 0-6.2402-2.7831-6.2402-6.2402v-14.874c0-3.4571 2.7831-6.2402 6.2402-6.2402z" filter="url(#c)"/>
  </g>
 </g>
 <g transform="translate(955.56 120.41)">
  <path transform="translate(-698.8 -120.41)" d="m-252.31 119.66c-2.209 0.01-4.6648 2.1345-4.4375 9.6875v177s-1.2015 42.57 62.125 68.344c42.234 17.189 100.75 23.932 130.34 25.75 31.922 1.9604 61.959 15.767 80.5 38 22.481 26.957 21.044 77.985 42.906 77.688 0 0 867.47-0.20339 867.88-0.21875 39.546-1.4891 76.112-12.23 111.88-36.906l2.5938-347.84c-42.486 33.556-136.85 34.128-250.94 33.938l-862.5-0.0312c-76.291 1.0985-117.22-12.636-177.75-44.438-0.63577-0.54836-1.5896-0.97313-2.5938-0.96875zm-0.15625 17.875c0.21358-0.0607 0.47168-0.0138 0.71875 0.15625l2.4062 1.6875c0.98832 0.68004 1.8125 3.0331 1.8125 5.3125v20.688c0 2.2794-0.82418 3.555-1.8125 2.875l-2.4062-1.6875c-0.98831-0.68004-1.7812-3.0643-1.7812-5.3438v-20.656c0-1.7096 0.42178-2.8492 1.0625-3.0312zm14.406 11.719c0.16237 4e-3 0.32759 0.0435 0.5 0.125l3.9375 1.875c1.3793 0.65227 2.4688 3.6281 2.4688 6.6875v18.438c0 3.0594-1.0894 4.996-2.4688 4.3438l-3.9375-1.8438c-1.3793-0.65227-2.5-3.6594-2.5-6.7188v-18.438c0-2.677 0.86343-4.493 2-4.4688zm1274 5.9375c0.083 1e-3 0.1692 0.017 0.25 0.0312 0.9687 0.1716 1.6562 1.4269 1.6562 3.3125v19.188c0 2.5142-1.1932 5.1736-2.6875 5.9688l-1.375 0.71875c-1.4943 0.79517-2.6875-0.5796-2.6875-3.0938v-19.188c0-2.5142 1.1932-5.1736 2.6875-5.9688l1.375-0.71875c0.1868-0.0994 0.3605-0.18176 0.5313-0.21875 0.085-0.0185 0.1665-0.0324 0.25-0.0312zm-1252 5.6875c0.2179-0.0255 0.45613-0.0142 0.6875 0.0625l6.3125 2.0938c1.851 0.61384 3.3438 4.3915 3.3438 8.4688v15.469c0 4.0772-1.4927 6.8638-3.3438 6.25l-6.3125-2.0938c-1.851-0.61385-3.3438-4.3915-3.3438-8.4688v-15.469c0-3.5676 1.131-6.1343 2.6562-6.3125zm1229 4.375c2.4622-0.22321 4.375 2.7334 4.375 6.9375v13.312c0 4.4844-2.1764 8.6464-4.875 9.3438l-4.7812 1.2188c-2.6986 0.69733-4.875-2.3281-4.875-6.8125v-13.312c0-4.4844 2.1764-8.6464 4.875-9.3438l4.7812-1.25c0.1687-0.0436 0.3359-0.0789 0.5-0.0937zm-1196.8 5.875c0.28654-0.0255 0.57073-0.0142 0.875 0.0625l8.3438 2.0938c2.4342 0.61384 4.375 4.3915 4.375 8.4688v15.469c0 4.0772-1.9408 6.8638-4.375 6.25l-8.3438-2.0938c-2.4342-0.61384-4.4062-4.3915-4.4062-8.4688v-15.469c0-3.5676 1.5255-6.1343 3.5312-6.3125zm1162.3 3.5625c2.8077-0.23031 5 2.416 5 6.2188v14.656c0 4.0563-2.4853 7.8381-5.5625 8.5l-6.2188 1.3438c-3.0772 0.6619-5.5625-2.0687-5.5625-6.125v-14.625c0-4.0563 2.4853-7.8694 5.5625-8.5312l6.2188-1.3438c0.19232-0.0414 0.37532-0.0785 0.5625-0.0937zm-1121.2 4.6875c0.40959-0.0295 0.84632 5e-3 1.2812 0.0625l8.75 1.1562c3.4795 0.45779 6.2812 3.6143 6.2812 7.0938v17.625c0 3.4795-2.8018 5.9265-6.2812 5.4688l-8.75-1.1562c-3.4795-0.45779-6.2812-3.6455-6.2812-7.125v-17.625c0-3.0445 2.1329-5.2935 5-5.5zm1078.4 1.75c3.0873 0.0386 5.4688 2.8966 5.4688 6.75v14.844c0 4.1103-2.7101 7.7211-6.0938 8.0938l-6.8438 0.75c-3.3837 0.37271-6.0938-2.6397-6.0938-6.75v-14.812c0-4.1103 2.7101-7.7211 6.0938-8.0938l6.8438-0.75c0.21148-0.0233 0.41918-0.0339 0.625-0.0312zm-1030 4.375h8.7812c3.4795 0 6.2812 2.8018 6.2812 6.2812v16.562c0 3.4795-2.8018 6.2812-6.2812 6.2812h-8.7812c-3.4795 0-6.2812-2.8018-6.2812-6.2812v-16.562c0-3.4795 2.8018-6.2812 6.2812-6.2812zm983.28 0.90625c3.101-0.18926 5.5938 2.458 5.5938 5.9375v16c0 3.4795-2.4928 6.4358-5.5938 6.625l-10.031 0.625c-3.101 0.18925-5.5938-2.458-5.5938-5.9375v-16.031c0-3.4795 2.4928-6.4357 5.5938-6.625l10.031-0.59375zm-781.56 1.0625h11.188c3.504 0 6.3125 2.8398 6.3125 6.3438v16.062c0 3.504-2.8085 6.3125-6.3125 6.3125h-11.188c-3.504 0-6.3125-2.8085-6.3125-6.3125v-16.062c0-3.504 2.8085-6.3438 6.3125-6.3438zm51.312 0h11.156c3.504 0 6.3125 2.8398 6.3125 6.3438v16.062c0 3.504-2.8085 6.3125-6.3125 6.3125h-11.156c-3.504 0-6.3438-2.8085-6.3438-6.3125v-16.062c0-3.504 2.8398-6.3438 6.3438-6.3438zm51.281 0h11.156c3.504 0 6.3125 2.8398 6.3125 6.3438v16.062c0 3.504-2.8085 6.3125-6.3125 6.3125h-11.156c-3.504 0-6.3438-2.8085-6.3438-6.3125v-16.062c0-3.504 2.8398-6.3438 6.3438-6.3438zm51.281 0h11.156c3.504 0 6.3125 2.8398 6.3125 6.3438v16.062c0 3.504-2.8085 6.3125-6.3125 6.3125h-11.156c-3.504 0-6.3438-2.8085-6.3438-6.3125v-16.062c0-3.504 2.8398-6.3438 6.3438-6.3438zm51.281 0h11.156c3.504 0 6.3438 2.8398 6.3438 6.3438v16.062c0 3.504-2.8398 6.3125-6.3438 6.3125h-11.156c-3.504 0-6.3125-2.8085-6.3125-6.3125v-16.062c0-3.504 2.8085-6.3438 6.3125-6.3438zm-359.22 0.0937h11.25c3.4795 0 6.2812 2.8018 6.2812 6.2812v16.031c0 3.4795-2.8018 6.2812-6.2812 6.2812h-11.25c-3.4795 0-6.2812-2.8018-6.2812-6.2812v-16.031c0-3.4795 2.8018-6.2812 6.2812-6.2812zm51.312 0h11.25c3.4795 0 6.2812 2.8018 6.2812 6.2812v16.031c0 3.4795-2.8018 6.2812-6.2812 6.2812h-11.25c-3.4795 0-6.2812-2.8018-6.2812-6.2812v-16.031c0-3.4795 2.8018-6.2812 6.2812-6.2812zm51.312 0h11.25c3.4795 0 6.2812 2.8018 6.2812 6.2812v16.031c0 3.4795-2.8018 6.2812-6.2812 6.2812h-11.25c-3.4795 0-6.2812-2.8018-6.2812-6.2812v-16.031c0-3.4795 2.8018-6.2812 6.2812-6.2812zm308.09 0h11.219c3.4795 0 6.2812 2.8018 6.2812 6.2812v16.031c0 3.4795-2.8018 6.2812-6.2812 6.2812h-11.219c-3.4795 0-6.2812-2.8018-6.2812-6.2812v-16.031c0-3.4795 2.8018-6.2812 6.2812-6.2812zm51.312 0h11.25c3.4795 0 6.2812 2.8018 6.2812 6.2812v16.031c0 3.4795-2.8018 6.2812-6.2812 6.2812h-11.25c-3.4795 0-6.2812-2.8018-6.2812-6.2812v-16.031c0-3.4795 2.8018-6.2812 6.2812-6.2812zm51.312 0h11.25c3.4795 0 6.2812 2.8018 6.2812 6.2812v16.031c0 3.4795-2.8018 6.2812-6.2812 6.2812h-11.25c-3.4795 0-6.2812-2.8018-6.2812-6.2812v-16.031c0-3.4795 2.8018-6.2812 6.2812-6.2812zm51.312 0h11.25c3.4795 0 6.2812 2.8018 6.2812 6.2812v16.031c0 3.4795-2.8018 6.2812-6.2812 6.2812h-11.25c-3.4795 0-6.2812-2.8018-6.2812-6.2812v-16.031c0-3.4795 2.8018-6.2812 6.2812-6.2812zm51.344 0h11.219c3.4795 0 6.2812 2.8018 6.2812 6.2812v16.031c0 3.4795-2.8018 6.2812-6.2812 6.2812h-11.219c-3.4795 0-6.2812-2.8018-6.2812-6.2812v-16.031c0-3.4795 2.8018-6.2812 6.2812-6.2812zm51.312 0h11.25c3.4795 0 6.2812 2.8018 6.2812 6.2812v16.031c0 3.4795-2.8018 6.2812-6.2812 6.2812h-11.25c-3.4795 0-6.2812-2.8018-6.2812-6.2812v-16.031c0-3.4795 2.8018-6.2812 6.2812-6.2812zm51.312 0h11.25c3.4795 0 6.2812 2.8018 6.2812 6.2812v16.031c0 3.4795-2.8018 6.2812-6.2812 6.2812h-11.25c-3.4795 0-6.2812-2.8018-6.2812-6.2812v-16.031c0-3.4795 2.8018-6.2812 6.2812-6.2812zm51.312 0h11.25c3.4795 0 6.2812 2.8018 6.2812 6.2812v16.031c0 3.4795-2.8018 6.2812-6.2812 6.2812h-11.25c-3.4795 0-6.2812-2.8018-6.2812-6.2812v-16.031c0-3.4795 2.8018-6.2812 6.2812-6.2812zm51.344 0h11.219c3.4795 0 6.2812 2.8018 6.2812 6.2812v16.031c0 3.4795-2.8018 6.2812-6.2812 6.2812h-11.219c-3.4795 0-6.2812-2.8018-6.2812-6.2812v-16.031c0-3.4795 2.8018-6.2812 6.2812-6.2812zm51.312 0h11.25c3.4795 0 6.2812 2.8018 6.2812 6.2812v16.031c0 3.4795-2.8018 6.2812-6.2812 6.2812h-11.25c-0.43493 0-0.87166-0.0416-1.2812-0.125-0.2048-0.0417-0.39685-0.0953-0.59375-0.15625s-0.40577-0.13951-0.59375-0.21875c-0.75191-0.31698-1.4011-0.77614-1.9688-1.3438-0.28381-0.28381-0.55596-0.60347-0.78125-0.9375-0.45059-0.66805-0.77072-1.4308-0.9375-2.25-0.0834-0.40959-0.125-0.81507-0.125-1.25v-16.031c0-0.21747 0.01-0.41335 0.0312-0.625s0.0521-0.4202 0.0937-0.625c0.16678-0.81918 0.48691-1.582 0.9375-2.25 0.11265-0.16701 0.24721-0.34502 0.375-0.5 0.25559-0.30995 0.5338-0.58816 0.84375-0.84375 0.15498-0.12779 0.30174-0.2311 0.46875-0.34375 0.50104-0.33794 1.0655-0.62954 1.6562-0.8125 0.1969-0.061 0.38895-0.11455 0.59375-0.15625 0.40959-0.0834 0.84632-0.125 1.2812-0.125zm205.94 243.06c0.9688 0.0583 1.6563 1.0503 1.6563 2.625v18.938c0 2.0996-1.1932 4.4236-2.6875 5.2188l-1.375 0.75c-1.4943 0.79517-2.6875-0.27542-2.6875-2.375v-18.938c0-2.0996 1.1932-4.4236 2.6875-5.2188l1.375-0.71875c0.3736-0.19879 0.7083-0.30068 1.0312-0.28125zm-24.375 12.469c1.927-0.0865 3.375 1.5062 3.375 3.9062v18.594c0 2.7429-1.8802 5.4928-4.2187 6.1562l-4.375 1.2188c-2.3385 0.66342-4.2188-1.0071-4.2188-3.75v-18.594c0-2.7429 1.8803-5.4928 4.2188-6.1562l4.375-1.2188c0.2923-0.0829 0.5685-0.14389 0.8437-0.15625zm-33.969 10.5c0.17692-0.0158 0.35915-9e-3 0.53125 0 2.4093 0.12941 4.2188 2.5686 4.2188 5.9688v14.031c0 3.8859-2.3574 7.5222-5.2812 8.1562l-5.9062 1.2812c-2.9239 0.63409-5.2812-1.9891-5.2812-5.875v-14.031c0-3.8859 2.3574-7.5222 5.2812-8.1562l5.9062-1.2812c0.18275-0.0396 0.35433-0.0779 0.53125-0.0937zm-41.719 7.9375c3.0873 0.0378 5.4688 2.8534 5.4688 6.625v14.531c0 4.023-2.7101 7.5728-6.0938 7.9375l-6.8438 0.71875c-3.3837 0.36471-6.125-2.5707-6.125-6.5938v-14.531c0-4.023 2.7413-7.5415 6.125-7.9062l6.8438-0.75c0.21148-0.0228 0.41918-0.0338 0.625-0.0312zm-45.25 1.8438c2.9733 0.0327 5.2812 2.488 5.2812 5.75v16c0 3.4795-2.6163 6.5283-5.875 6.8438l-10.531 1.0312c-3.2587 0.31543-5.875-2.2393-5.875-5.7188v-16c0-3.4795 2.6163-6.5596 5.875-6.875l10.531-1c0.20367-0.0197 0.39553-0.0335 0.59375-0.0312zm-779.16 0.96875h11.188c3.504 0 6.3125 2.8398 6.3125 6.3438v16.062c0 3.504-2.8085 6.3125-6.3125 6.3125h-11.188c-3.504 0-6.3125-2.8085-6.3125-6.3125v-16.062c0-3.504 2.8085-6.3438 6.3125-6.3438zm51.312 0h11.156c3.504 0 6.3125 2.8398 6.3125 6.3438v16.062c0 3.504-2.8085 6.3125-6.3125 6.3125h-11.156c-3.504 0-6.3438-2.8085-6.3438-6.3125v-16.062c0-3.504 2.8398-6.3438 6.3438-6.3438zm51.281 0h11.156c3.504 0 6.3125 2.8398 6.3125 6.3438v16.062c0 3.504-2.8085 6.3125-6.3125 6.3125h-11.156c-3.504 0-6.3438-2.8085-6.3438-6.3125v-16.062c0-3.504 2.8398-6.3438 6.3438-6.3438zm51.281 0h11.156c3.504 0 6.3125 2.8398 6.3125 6.3438v16.062c0 3.504-2.8085 6.3125-6.3125 6.3125h-11.156c-3.504 0-6.3438-2.8085-6.3438-6.3125v-16.062c0-3.504 2.8398-6.3438 6.3438-6.3438zm51.281 0h11.156c3.504 0 6.3438 2.8398 6.3438 6.3438v16.062c0 3.504-2.8398 6.3125-6.3438 6.3125h-11.156c-3.504 0-6.3125-2.8085-6.3125-6.3125v-16.062c0-3.504 2.8085-6.3438 6.3125-6.3438zm-256.59 0.0625h11.25c3.4795 0 6.2812 2.8018 6.2812 6.2812v16c0 3.4795-2.8018 6.2812-6.2812 6.2812h-11.25c-3.4795 0-6.2812-2.8018-6.2812-6.2812v-16c0-3.4795 2.8018-6.2812 6.2812-6.2812zm308.09 0h11.219c3.4795 0 6.2812 2.8018 6.2812 6.2812v16c0 3.4795-2.8018 6.2812-6.2812 6.2812h-11.219c-3.4795 0-6.2812-2.8018-6.2812-6.2812v-16c0-3.4795 2.8018-6.2812 6.2812-6.2812zm51.312 0h11.25c3.4795 0 6.2812 2.8018 6.2812 6.2812v16c0 3.4795-2.8018 6.2812-6.2812 6.2812h-11.25c-3.4795 0-6.2812-2.8018-6.2812-6.2812v-16c0-3.4795 2.8018-6.2812 6.2812-6.2812zm51.312 0h11.25c3.4795 0 6.2812 2.8018 6.2812 6.2812v16c0 3.4795-2.8018 6.2812-6.2812 6.2812h-11.25c-3.4795 0-6.2812-2.8018-6.2812-6.2812v-16c0-3.4795 2.8018-6.2812 6.2812-6.2812zm51.312 0h11.25c3.4795 0 6.2812 2.8018 6.2812 6.2812v16c0 3.4795-2.8018 6.2812-6.2812 6.2812h-11.25c-3.4795 0-6.2812-2.8018-6.2812-6.2812v-16c0-3.4795 2.8018-6.2812 6.2812-6.2812zm51.344 0h11.219c3.4795 0 6.2812 2.8018 6.2812 6.2812v16c0 3.4795-2.8018 6.2812-6.2812 6.2812h-11.219c-3.4795 0-6.2812-2.8018-6.2812-6.2812v-16c0-3.4795 2.8018-6.2812 6.2812-6.2812zm51.312 0h11.25c3.4795 0 6.2812 2.8018 6.2812 6.2812v16c0 3.4795-2.8018 6.2812-6.2812 6.2812h-11.25c-3.4795 0-6.2812-2.8018-6.2812-6.2812v-16c0-3.4795 2.8018-6.2812 6.2812-6.2812zm51.312 0h11.25c3.4795 0 6.2812 2.8018 6.2812 6.2812v16c0 3.4795-2.8018 6.2812-6.2812 6.2812h-11.25c-3.4795 0-6.2812-2.8018-6.2812-6.2812v-16c0-3.4795 2.8018-6.2812 6.2812-6.2812zm51.312 0h11.25c3.4795 0 6.2812 2.8018 6.2812 6.2812v16c0 3.4795-2.8018 6.2812-6.2812 6.2812h-11.25c-3.4795 0-6.2812-2.8018-6.2812-6.2812v-16c0-3.4795 2.8018-6.2812 6.2812-6.2812zm51.344 0h11.219c3.4795 0 6.2812 2.8018 6.2812 6.2812v16c0 3.4795-2.8018 6.2812-6.2812 6.2812h-11.219c-3.4795 0-6.2812-2.8018-6.2812-6.2812v-16c0-3.4795 2.8018-6.2812 6.2812-6.2812zm51.312 0h11.25c3.4795 0 6.2812 2.8018 6.2812 6.2812v16c0 3.4795-2.8018 6.2812-6.2812 6.2812h-11.25c-0.21747 0-0.4446-0.01-0.65625-0.0312-0.63495-0.0641-1.2486-0.23102-1.8125-0.46875-0.18798-0.0792-0.35324-0.15354-0.53125-0.25s-0.36424-0.19985-0.53125-0.3125-0.31377-0.24721-0.46875-0.375-0.2956-0.2331-0.4375-0.375c-0.99332-0.99332-1.6629-2.331-1.8125-3.8125-0.0214-0.21165-0.0312-0.43878-0.0312-0.65625v-16c0-0.21747 0.01-0.4446 0.0312-0.65625 0.0427-0.4233 0.12802-0.82494 0.25-1.2188 0.061-0.19691 0.13951-0.40577 0.21875-0.59375 0.31698-0.75191 0.77614-1.4011 1.3438-1.9688 0.28381-0.28381 0.57222-0.55596 0.90625-0.78125s0.68654-0.40401 1.0625-0.5625c0.75191-0.31698 1.5989-0.5 2.4688-0.5z" fill="url(#e)"/>
 </g>
 <g transform="translate(955.56 120.41)">
  <path d="m320.49-41.295-4.7152 3.0296v19.796s0 5.4511 5.1642 5.738 4.5064-0.97356 7.6622-0.68666 3.318 10.105 3.318 13.548-0.13325 17.214-0.13325 17.214 2.3355-0.27181 4.3642-2.3005 4.4631-4.8688 4.4631-4.8688l1.623 0.40574v340.16c-1.5344 12.623-10.874 13.819-17.852 17.494l-2.4344 1.4201s11.523 7.4166 21.437-0.94894c5.2434-4.4244 8.254-11.543 8.254-19.174 0-4.2602-0.0717-356.4-0.0717-356.4s2.0287-13.085-6.3903-21.301c-6.8959-6.949-10.549-9.9943-18.157-16.838l-6.5311 3.7107z" fill="#080202"/>
  <path d="m316.17-38.686 14.775 14.345s8.278 8.3693 8.1766 16.927c-0.0929 7.7457-4.16 22.952-4.16 22.952" fill="none" stroke="url(#j)" stroke-linecap="round"/>
  <path d="m327.18-44.721 15.84 15.106s8.5234 6.2262 8.3201 16.963l-0.21517 11.365" fill="none" stroke="url(#i)" stroke-linecap="round"/>
  <path d="m313.71-39.088c0.66081-0.70599 2.3506-1.0612 3.1299-1.5597 2.9689-1.7484 5.4897-3.127 8.3885-4.8867 1.107-0.25502 1.7743-1.5928 2.9138-1.2747 0.66742 0.72843 2.8674 2.7188 3.4223 3.5149 0.31517 0.95562-0.7554 1.62-0.59927 2.5757-0.0793 1.2258 0.28478 2.4274 0.93088 3.4638 0.42135 1.337 1.708 2.2706 1.87 3.7092 0.34676 0.97915 0.97079 2.1507 0.296 3.132-1.071 1.451-3.457 1.1154-4.4262-0.28214-1.1217-1.1286-2.2164-2.287-3.1806-3.5542-1.0269-1.0329-2.2522-1.938-3.6568-2.3725-1.4512-0.44306-3.0418-0.33441-4.4757 0.11298-0.86339 0.68604-1.8712-0.09452-2.4213-0.81266-0.5706-0.64554-1.8793-0.93651-2.1914-1.7659z" clip-path="url(#an)" fill="url(#h)" filter="url(#t)"/>
 </g>
</svg>
